<svg width="134" height="27" viewBox="0 0 134 27" fill="none" xmlns="http://www.w3.org/2000/svg">
<mask id="path-1-outside-1_61_3" maskUnits="userSpaceOnUse" x="-1" y="-1" width="136" height="29" fill="black">
<rect fill="white" x="-1" y="-1" width="136" height="29"/>
<path d="M26.3594 24.3594C25.776 24.3281 25.2083 24.2865 24.6562 24.2344C24.1146 24.1719 23.6198 24.0885 23.1719 23.9844C22.724 23.8802 22.3438 23.7448 22.0312 23.5781C21.7292 23.401 21.5312 23.1823 21.4375 22.9219L12.7969 1.57812C12.6198 1.58854 12.4479 1.66146 12.2812 1.79688C12.2083 3.08854 11.8125 4.125 11.0938 4.90625L11.4531 5.82812L4.85938 22.4062C4.44271 23.4479 3.16146 24.099 1.01562 24.3594C0.953125 24.5052 0.921875 24.6354 0.921875 24.75C0.921875 24.875 0.953125 25 1.01562 25.125C2.20312 25.0833 3.15625 25.0521 3.875 25.0312C4.60417 25.0104 5.10417 25 5.375 25C5.61458 25 6.15625 25.0104 7 25.0312C7.85417 25.0521 9.01042 25.0833 10.4688 25.125C10.5312 25 10.5625 24.875 10.5625 24.75C10.5625 24.6354 10.5312 24.5052 10.4688 24.3594C9.60417 24.276 8.90104 24.1875 8.35938 24.0938C7.81771 23.9896 7.39583 23.8802 7.09375 23.7656C6.79167 23.651 6.58854 23.526 6.48438 23.3906C6.38021 23.2448 6.32812 23.0833 6.32812 22.9062C6.32812 22.7917 6.34896 22.6771 6.39062 22.5625L8.67188 16.8438C9.82812 16.8229 10.7604 16.8073 11.4688 16.7969C12.1875 16.7865 12.6823 16.7812 12.9531 16.7812C13.5469 16.7812 14.0729 16.7865 14.5312 16.7969C15 16.7969 15.401 16.8021 15.7344 16.8125L18 22.5625C18.0521 22.7188 18.0781 22.8385 18.0781 22.9219C18.0781 23.2031 17.9323 23.4531 17.6406 23.6719C17.3594 23.8906 17.0104 24.0417 16.5938 24.125L14.9062 24.3594C14.8438 24.5052 14.8125 24.6354 14.8125 24.75C14.8125 24.875 14.8438 25 14.9062 25.125C15.7917 25.0938 16.6875 25.0677 17.5938 25.0469C18.5104 25.026 19.4479 25.0156 20.4062 25.0156C21.3646 25.0156 22.3333 25.026 23.3125 25.0469C24.3021 25.0677 25.3177 25.0938 26.3594 25.125C26.4323 24.9792 26.4688 24.8542 26.4688 24.75C26.4688 24.6875 26.4583 24.625 26.4375 24.5625C26.4167 24.5 26.3906 24.4323 26.3594 24.3594ZM12.9531 15.5625C11.4427 15.5625 10.1979 15.5417 9.21875 15.5L12.1875 7.84375H12.25L15.2344 15.5312C14.6719 15.5521 13.9115 15.5625 12.9531 15.5625ZM12.2188 9.48438L10.1406 14.8906C11.401 14.9531 12.7865 14.9635 14.2969 14.9219L12.2188 9.48438ZM26.8438 23.7812C27.1042 24.4062 27.0938 25.0677 26.8125 25.7656H14.4219C14.1719 25.0469 14.1719 24.3854 14.4219 23.7812C15.5573 23.7188 16.3594 23.6042 16.8281 23.4375C17.2969 23.2604 17.4583 22.9792 17.3125 22.5938L15.2656 17.4219C13.3385 17.349 11.276 17.3698 9.07812 17.4844L7.0625 22.6562C7 22.8333 7.04688 22.9948 7.20312 23.1406C7.36979 23.276 7.63542 23.3854 8 23.4688C8.36458 23.5521 8.79167 23.6198 9.28125 23.6719C9.77083 23.724 10.3229 23.7604 10.9375 23.7812C11.1979 24.4062 11.1875 25.0677 10.9062 25.7656C7.48958 25.6406 4.04688 25.6406 0.578125 25.7656C0.296875 25.0677 0.286458 24.4062 0.546875 23.7812C2.69271 23.5312 3.90625 23.0625 4.1875 22.375L10.7812 5.79688C10.7396 5.71354 10.6562 5.52604 10.5312 5.23438C10.4167 4.93229 10.349 4.73438 10.3281 4.64062C11.1406 3.81771 11.5885 2.75521 11.6719 1.45312C12.5885 1.00521 13.6667 0.75 14.9062 0.6875L23.6719 22.4375C23.8698 22.9271 24.1823 23.2552 24.6094 23.4219C25.0365 23.5781 25.7812 23.6979 26.8438 23.7812ZM35.5312 13C35.5312 10.4375 35.5833 7.52604 35.6875 4.26562C35.7083 3.47396 37.4479 2.97396 40.9062 2.76562C40.9688 2.56771 40.9688 2.32292 40.9062 2.03125C38.1771 2.11458 36.0469 2.15625 34.5156 2.15625C33.2344 2.15625 31.4167 2.11458 29.0625 2.03125C28.9792 2.21875 28.9792 2.46354 29.0625 2.76562C31.4583 2.99479 32.6667 3.49479 32.6875 4.26562C32.7917 6.71354 32.8438 9.625 32.8438 13C32.8438 16.3021 32.7812 19.5885 32.6562 22.8594C32.6354 23.6302 31.4271 24.1302 29.0312 24.3594C28.9688 24.6198 28.9688 24.8646 29.0312 25.0938C31.0417 25.0312 35.7135 25 43.0469 25C45.5469 25 47.4219 24.5312 48.6719 23.5938C49.9219 22.6562 51.0885 21.0781 52.1719 18.8594C52.0885 18.6823 51.9062 18.5417 51.625 18.4375C51.2188 19.1875 50.7708 19.8542 50.2812 20.4375C49.7917 21.0208 49.1458 21.6094 48.3438 22.2031C47.5417 22.7865 46.5417 23.2396 45.3438 23.5625C44.1562 23.8854 42.8073 24.0469 41.2969 24.0469H35.6562C35.5729 20.3906 35.5312 16.7083 35.5312 13ZM37.9062 14.1562C37.9062 17.0104 37.9479 20.0938 38.0312 23.4062H41.2656C45.8906 23.4062 49.25 21.4844 51.3438 17.6406C52.2188 17.9635 52.7708 18.3698 53 18.8594C51.5104 21.3281 50.6354 23.5885 50.375 25.6406H37.7656C33.651 25.6406 30.5938 25.6719 28.5938 25.7344C28.375 25.0573 28.3646 24.3958 28.5625 23.75C30.8438 23.5208 31.9948 23.2135 32.0156 22.8281C32.1406 19.5573 32.2031 16.2812 32.2031 13C32.2031 9.64583 32.151 6.74479 32.0469 4.29688C32.026 3.91146 30.8646 3.60417 28.5625 3.375C28.3854 2.6875 28.4062 2.01562 28.625 1.35938C30.4375 1.46354 32.7708 1.51562 35.625 1.51562C36.0521 1.51562 36.9062 1.50521 38.1875 1.48438C39.4688 1.46354 40.5885 1.45312 41.5469 1.45312C41.7448 2.04688 41.7552 2.6875 41.5781 3.375C39.276 3.60417 38.1146 3.91146 38.0938 4.29688C37.9688 6.90104 37.9062 10.1875 37.9062 14.1562ZM80.4531 24.3594C79.8698 24.3281 79.3021 24.2865 78.75 24.2344C78.2083 24.1719 77.7135 24.0885 77.2656 23.9844C76.8177 23.8802 76.4375 23.7448 76.125 23.5781C75.8229 23.401 75.625 23.1823 75.5312 22.9219L66.8906 1.57812C66.7135 1.58854 66.5417 1.66146 66.375 1.79688C66.3021 3.08854 65.9062 4.125 65.1875 4.90625L65.5469 5.82812L58.9531 22.4062C58.5365 23.4479 57.2552 24.099 55.1094 24.3594C55.0469 24.5052 55.0156 24.6354 55.0156 24.75C55.0156 24.875 55.0469 25 55.1094 25.125C56.2969 25.0833 57.25 25.0521 57.9688 25.0312C58.6979 25.0104 59.1979 25 59.4688 25C59.7083 25 60.25 25.0104 61.0938 25.0312C61.9479 25.0521 63.1042 25.0833 64.5625 25.125C64.625 25 64.6562 24.875 64.6562 24.75C64.6562 24.6354 64.625 24.5052 64.5625 24.3594C63.6979 24.276 62.9948 24.1875 62.4531 24.0938C61.9115 23.9896 61.4896 23.8802 61.1875 23.7656C60.8854 23.651 60.6823 23.526 60.5781 23.3906C60.474 23.2448 60.4219 23.0833 60.4219 22.9062C60.4219 22.7917 60.4427 22.6771 60.4844 22.5625L62.7656 16.8438C63.9219 16.8229 64.8542 16.8073 65.5625 16.7969C66.2812 16.7865 66.776 16.7812 67.0469 16.7812C67.6406 16.7812 68.1667 16.7865 68.625 16.7969C69.0938 16.7969 69.4948 16.8021 69.8281 16.8125L72.0938 22.5625C72.1458 22.7188 72.1719 22.8385 72.1719 22.9219C72.1719 23.2031 72.026 23.4531 71.7344 23.6719C71.4531 23.8906 71.1042 24.0417 70.6875 24.125L69 24.3594C68.9375 24.5052 68.9062 24.6354 68.9062 24.75C68.9062 24.875 68.9375 25 69 25.125C69.8854 25.0938 70.7812 25.0677 71.6875 25.0469C72.6042 25.026 73.5417 25.0156 74.5 25.0156C75.4583 25.0156 76.4271 25.026 77.4062 25.0469C78.3958 25.0677 79.4115 25.0938 80.4531 25.125C80.526 24.9792 80.5625 24.8542 80.5625 24.75C80.5625 24.6875 80.5521 24.625 80.5312 24.5625C80.5104 24.5 80.4844 24.4323 80.4531 24.3594ZM67.0469 15.5625C65.5365 15.5625 64.2917 15.5417 63.3125 15.5L66.2812 7.84375H66.3438L69.3281 15.5312C68.7656 15.5521 68.0052 15.5625 67.0469 15.5625ZM66.3125 9.48438L64.2344 14.8906C65.4948 14.9531 66.8802 14.9635 68.3906 14.9219L66.3125 9.48438ZM80.9375 23.7812C81.1979 24.4062 81.1875 25.0677 80.9062 25.7656H68.5156C68.2656 25.0469 68.2656 24.3854 68.5156 23.7812C69.651 23.7188 70.4531 23.6042 70.9219 23.4375C71.3906 23.2604 71.5521 22.9792 71.4062 22.5938L69.3594 17.4219C67.4323 17.349 65.3698 17.3698 63.1719 17.4844L61.1562 22.6562C61.0938 22.8333 61.1406 22.9948 61.2969 23.1406C61.4635 23.276 61.7292 23.3854 62.0938 23.4688C62.4583 23.5521 62.8854 23.6198 63.375 23.6719C63.8646 23.724 64.4167 23.7604 65.0312 23.7812C65.2917 24.4062 65.2812 25.0677 65 25.7656C61.5833 25.6406 58.1406 25.6406 54.6719 25.7656C54.3906 25.0677 54.3802 24.4062 54.6406 23.7812C56.7865 23.5312 58 23.0625 58.2812 22.375L64.875 5.79688C64.8333 5.71354 64.75 5.52604 64.625 5.23438C64.5104 4.93229 64.4427 4.73438 64.4219 4.64062C65.2344 3.81771 65.6823 2.75521 65.7656 1.45312C66.6823 1.00521 67.7604 0.75 69 0.6875L77.7656 22.4375C77.9635 22.9271 78.276 23.2552 78.7031 23.4219C79.1302 23.5781 79.875 23.6979 80.9375 23.7812ZM89.8125 22.8594C89.7292 18.5052 89.6875 15.2188 89.6875 13C89.6875 10.4375 89.7396 7.52604 89.8438 4.26562C89.8646 3.47396 91.6042 2.97396 95.0625 2.76562C95.125 2.56771 95.125 2.32292 95.0625 2.03125C92.3333 2.11458 90.2031 2.15625 88.6719 2.15625C87.3906 2.15625 85.5729 2.11458 83.2188 2.03125C83.1354 2.21875 83.1354 2.46354 83.2188 2.76562C85.6146 2.99479 86.8229 3.49479 86.8438 4.26562C86.9479 6.71354 87 9.625 87 13C87 16.3021 86.9375 19.5885 86.8125 22.8594C86.7917 23.6302 85.5833 24.1302 83.1875 24.3594C83.1042 24.526 83.1042 24.7708 83.1875 25.0938C84.9583 25.0312 86.776 25 88.6406 25C90.8594 25 92.9896 25.0312 95.0312 25.0938C95.1146 24.9271 95.1146 24.6823 95.0312 24.3594C91.5729 24.151 89.8333 23.651 89.8125 22.8594ZM82.7188 3.375C82.5417 2.6875 82.5625 2.01562 82.7812 1.35938C83.6979 1.35938 84.9375 1.38542 86.5 1.4375C88.0729 1.48958 89.1667 1.51562 89.7812 1.51562C90.2292 1.51562 91.0938 1.50521 92.375 1.48438C93.6562 1.46354 94.7656 1.45312 95.7031 1.45312C95.901 2.04688 95.9115 2.6875 95.7344 3.375C93.4323 3.60417 92.2708 3.91146 92.25 4.29688C92.125 6.90104 92.0625 10.1875 92.0625 14.1562C92.0625 17.9896 92.1146 20.8802 92.2188 22.8281C92.2188 22.8906 92.2448 22.9531 92.2969 23.0156C92.349 23.0781 92.4219 23.1302 92.5156 23.1719C92.6198 23.2135 92.724 23.2604 92.8281 23.3125C92.9323 23.3542 93.0729 23.3958 93.25 23.4375C93.4375 23.4792 93.5938 23.5156 93.7188 23.5469C93.8438 23.5781 94.0104 23.6094 94.2188 23.6406C94.4375 23.6719 94.6094 23.6979 94.7344 23.7188C94.8698 23.7396 95.0469 23.7604 95.2656 23.7812C95.4948 23.8021 95.651 23.8229 95.7344 23.8438C95.9115 24.4271 95.8802 25.0677 95.6406 25.7656C91.7969 25.6823 89.4635 25.6406 88.6406 25.6406C88.0781 25.6406 86.1146 25.6823 82.75 25.7656C82.4896 25.0469 82.4896 24.375 82.75 23.75C85.0104 23.5208 86.151 23.2135 86.1719 22.8281C86.2969 20.224 86.3594 16.9479 86.3594 13C86.3594 9.64583 86.3073 6.74479 86.2031 4.29688C86.1823 3.91146 85.0208 3.60417 82.7188 3.375ZM116.719 15.0156V12.9688C116.719 10.5625 116.667 7.73438 116.562 4.48438C116.542 3.93229 115.401 3.5625 113.141 3.375C112.995 3.01042 112.922 2.67708 112.922 2.375C112.922 2.1875 112.995 1.86979 113.141 1.42188C114.724 1.48438 116.312 1.51562 117.906 1.51562C119.51 1.51562 121.156 1.48438 122.844 1.42188C122.99 1.86979 123.062 2.1875 123.062 2.375C123.062 2.67708 122.99 3.01042 122.844 3.375C120.688 3.58333 119.599 3.95312 119.578 4.48438C119.443 6.68229 119.375 9.89583 119.375 14.125C119.375 18.8958 119.443 22.7552 119.578 25.7031L118.297 25.7344L103.469 7.59375C103.469 7.78125 103.464 8.125 103.453 8.625C103.443 9.11458 103.438 9.49479 103.438 9.76562C103.438 14.7969 103.505 19.0833 103.641 22.625C103.661 23.1875 104.802 23.5625 107.062 23.75C107.208 24.1146 107.281 24.4479 107.281 24.75C107.281 24.9792 107.208 25.3177 107.062 25.7656C105.458 25.7031 103.87 25.6719 102.297 25.6719C100.693 25.6719 99.0469 25.7031 97.3594 25.7656C97.2135 25.3177 97.1406 24.9792 97.1406 24.75C97.1406 24.4479 97.2135 24.1146 97.3594 23.75C99.5156 23.5417 100.604 23.1667 100.625 22.625C100.75 20.4375 100.812 17.2292 100.812 13C100.812 9.76042 100.771 6.86979 100.688 4.32812C100.01 3.79688 98.9792 3.47917 97.5938 3.375C97.4375 3.09375 97.3594 2.77083 97.3594 2.40625C97.3594 2.02083 97.4583 1.67188 97.6562 1.35938C99.8333 1.46354 102.583 1.51562 105.906 1.51562L116.719 15.0156ZM118.734 14.125C118.734 10.9688 118.802 7.75521 118.938 4.48438C118.979 3.54688 120.13 2.97396 122.391 2.76562C122.474 2.58854 122.474 2.34375 122.391 2.03125C120.422 2.09375 119.026 2.125 118.203 2.125C116.901 2.125 115.417 2.09375 113.75 2.03125C113.667 2.34375 113.667 2.58854 113.75 2.76562C116.031 2.97396 117.182 3.54688 117.203 4.48438C117.307 7.73438 117.359 10.5625 117.359 12.9688C117.359 14.375 117.339 16.2708 117.297 18.6562L103.828 2.15625C101.484 2.15625 99.5417 2.11458 98 2.03125C97.9167 2.28125 97.9167 2.52604 98 2.76562C99.3438 2.84896 100.453 3.27604 101.328 4.04688C101.411 6.57812 101.453 9.5625 101.453 13C101.453 16.1562 101.391 19.3646 101.266 22.625C101.224 23.5729 100.073 24.151 97.8125 24.3594C97.7292 24.526 97.7292 24.7708 97.8125 25.0938C99.7708 25.0312 101.167 25 102 25C103.302 25 104.786 25.0312 106.453 25.0938C106.536 24.7708 106.536 24.526 106.453 24.3594C104.172 24.151 103.021 23.5729 103 22.625C102.896 19.3854 102.844 16.5625 102.844 14.1562C102.844 11.4062 102.875 8.68229 102.938 5.98438H103.094L118.609 25.0938L118.906 25.0625C118.792 22.6146 118.734 18.9688 118.734 14.125ZM128.141 22.1562C127.818 22.5104 127.656 22.9583 127.656 23.5C127.656 23.7604 127.698 24.0104 127.781 24.25C127.875 24.4792 128 24.6823 128.156 24.8594C128.312 25.026 128.49 25.1615 128.688 25.2656C128.896 25.3698 129.12 25.4219 129.359 25.4219C129.589 25.4219 129.802 25.3698 130 25.2656C130.208 25.1615 130.391 25.026 130.547 24.8594C130.703 24.6823 130.823 24.4792 130.906 24.25C131 24.0104 131.047 23.7604 131.047 23.5C131.047 23.2396 131 22.9948 130.906 22.7656C130.823 22.5365 130.703 22.3333 130.547 22.1562C130.391 21.9792 130.208 21.8385 130 21.7344C129.802 21.6302 129.589 21.5781 129.359 21.5781C128.891 21.5781 128.484 21.7708 128.141 22.1562ZM129.578 20.9375C131.922 20.9375 133.094 21.7917 133.094 23.5C133.094 25.2083 131.922 26.0625 129.578 26.0625C129.234 26.0625 128.906 25.9948 128.594 25.8594C128.292 25.724 128.021 25.5417 127.781 25.3125C127.552 25.0833 127.365 24.8125 127.219 24.5C127.083 24.1875 127.016 23.8542 127.016 23.5C127.016 23.1458 127.083 22.8125 127.219 22.5C127.354 22.1875 127.536 21.9167 127.766 21.6875C128.005 21.4583 128.281 21.276 128.594 21.1406C128.906 21.0052 129.234 20.9375 129.578 20.9375Z"/>
</mask>
<path d="M26.3594 24.3594C25.776 24.3281 25.2083 24.2865 24.6562 24.2344C24.1146 24.1719 23.6198 24.0885 23.1719 23.9844C22.724 23.8802 22.3438 23.7448 22.0312 23.5781C21.7292 23.401 21.5312 23.1823 21.4375 22.9219L12.7969 1.57812C12.6198 1.58854 12.4479 1.66146 12.2812 1.79688C12.2083 3.08854 11.8125 4.125 11.0938 4.90625L11.4531 5.82812L4.85938 22.4062C4.44271 23.4479 3.16146 24.099 1.01562 24.3594C0.953125 24.5052 0.921875 24.6354 0.921875 24.75C0.921875 24.875 0.953125 25 1.01562 25.125C2.20312 25.0833 3.15625 25.0521 3.875 25.0312C4.60417 25.0104 5.10417 25 5.375 25C5.61458 25 6.15625 25.0104 7 25.0312C7.85417 25.0521 9.01042 25.0833 10.4688 25.125C10.5312 25 10.5625 24.875 10.5625 24.75C10.5625 24.6354 10.5312 24.5052 10.4688 24.3594C9.60417 24.276 8.90104 24.1875 8.35938 24.0938C7.81771 23.9896 7.39583 23.8802 7.09375 23.7656C6.79167 23.651 6.58854 23.526 6.48438 23.3906C6.38021 23.2448 6.32812 23.0833 6.32812 22.9062C6.32812 22.7917 6.34896 22.6771 6.39062 22.5625L8.67188 16.8438C9.82812 16.8229 10.7604 16.8073 11.4688 16.7969C12.1875 16.7865 12.6823 16.7812 12.9531 16.7812C13.5469 16.7812 14.0729 16.7865 14.5312 16.7969C15 16.7969 15.401 16.8021 15.7344 16.8125L18 22.5625C18.0521 22.7188 18.0781 22.8385 18.0781 22.9219C18.0781 23.2031 17.9323 23.4531 17.6406 23.6719C17.3594 23.8906 17.0104 24.0417 16.5938 24.125L14.9062 24.3594C14.8438 24.5052 14.8125 24.6354 14.8125 24.75C14.8125 24.875 14.8438 25 14.9062 25.125C15.7917 25.0938 16.6875 25.0677 17.5938 25.0469C18.5104 25.026 19.4479 25.0156 20.4062 25.0156C21.3646 25.0156 22.3333 25.026 23.3125 25.0469C24.3021 25.0677 25.3177 25.0938 26.3594 25.125C26.4323 24.9792 26.4688 24.8542 26.4688 24.75C26.4688 24.6875 26.4583 24.625 26.4375 24.5625C26.4167 24.5 26.3906 24.4323 26.3594 24.3594ZM12.9531 15.5625C11.4427 15.5625 10.1979 15.5417 9.21875 15.5L12.1875 7.84375H12.25L15.2344 15.5312C14.6719 15.5521 13.9115 15.5625 12.9531 15.5625ZM12.2188 9.48438L10.1406 14.8906C11.401 14.9531 12.7865 14.9635 14.2969 14.9219L12.2188 9.48438ZM26.8438 23.7812C27.1042 24.4062 27.0938 25.0677 26.8125 25.7656H14.4219C14.1719 25.0469 14.1719 24.3854 14.4219 23.7812C15.5573 23.7188 16.3594 23.6042 16.8281 23.4375C17.2969 23.2604 17.4583 22.9792 17.3125 22.5938L15.2656 17.4219C13.3385 17.349 11.276 17.3698 9.07812 17.4844L7.0625 22.6562C7 22.8333 7.04688 22.9948 7.20312 23.1406C7.36979 23.276 7.63542 23.3854 8 23.4688C8.36458 23.5521 8.79167 23.6198 9.28125 23.6719C9.77083 23.724 10.3229 23.7604 10.9375 23.7812C11.1979 24.4062 11.1875 25.0677 10.9062 25.7656C7.48958 25.6406 4.04688 25.6406 0.578125 25.7656C0.296875 25.0677 0.286458 24.4062 0.546875 23.7812C2.69271 23.5312 3.90625 23.0625 4.1875 22.375L10.7812 5.79688C10.7396 5.71354 10.6562 5.52604 10.5312 5.23438C10.4167 4.93229 10.349 4.73438 10.3281 4.64062C11.1406 3.81771 11.5885 2.75521 11.6719 1.45312C12.5885 1.00521 13.6667 0.75 14.9062 0.6875L23.6719 22.4375C23.8698 22.9271 24.1823 23.2552 24.6094 23.4219C25.0365 23.5781 25.7812 23.6979 26.8438 23.7812ZM35.5312 13C35.5312 10.4375 35.5833 7.52604 35.6875 4.26562C35.7083 3.47396 37.4479 2.97396 40.9062 2.76562C40.9688 2.56771 40.9688 2.32292 40.9062 2.03125C38.1771 2.11458 36.0469 2.15625 34.5156 2.15625C33.2344 2.15625 31.4167 2.11458 29.0625 2.03125C28.9792 2.21875 28.9792 2.46354 29.0625 2.76562C31.4583 2.99479 32.6667 3.49479 32.6875 4.26562C32.7917 6.71354 32.8438 9.625 32.8438 13C32.8438 16.3021 32.7812 19.5885 32.6562 22.8594C32.6354 23.6302 31.4271 24.1302 29.0312 24.3594C28.9688 24.6198 28.9688 24.8646 29.0312 25.0938C31.0417 25.0312 35.7135 25 43.0469 25C45.5469 25 47.4219 24.5312 48.6719 23.5938C49.9219 22.6562 51.0885 21.0781 52.1719 18.8594C52.0885 18.6823 51.9062 18.5417 51.625 18.4375C51.2188 19.1875 50.7708 19.8542 50.2812 20.4375C49.7917 21.0208 49.1458 21.6094 48.3438 22.2031C47.5417 22.7865 46.5417 23.2396 45.3438 23.5625C44.1562 23.8854 42.8073 24.0469 41.2969 24.0469H35.6562C35.5729 20.3906 35.5312 16.7083 35.5312 13ZM37.9062 14.1562C37.9062 17.0104 37.9479 20.0938 38.0312 23.4062H41.2656C45.8906 23.4062 49.25 21.4844 51.3438 17.6406C52.2188 17.9635 52.7708 18.3698 53 18.8594C51.5104 21.3281 50.6354 23.5885 50.375 25.6406H37.7656C33.651 25.6406 30.5938 25.6719 28.5938 25.7344C28.375 25.0573 28.3646 24.3958 28.5625 23.75C30.8438 23.5208 31.9948 23.2135 32.0156 22.8281C32.1406 19.5573 32.2031 16.2812 32.2031 13C32.2031 9.64583 32.151 6.74479 32.0469 4.29688C32.026 3.91146 30.8646 3.60417 28.5625 3.375C28.3854 2.6875 28.4062 2.01562 28.625 1.35938C30.4375 1.46354 32.7708 1.51562 35.625 1.51562C36.0521 1.51562 36.9062 1.50521 38.1875 1.48438C39.4688 1.46354 40.5885 1.45312 41.5469 1.45312C41.7448 2.04688 41.7552 2.6875 41.5781 3.375C39.276 3.60417 38.1146 3.91146 38.0938 4.29688C37.9688 6.90104 37.9062 10.1875 37.9062 14.1562ZM80.4531 24.3594C79.8698 24.3281 79.3021 24.2865 78.75 24.2344C78.2083 24.1719 77.7135 24.0885 77.2656 23.9844C76.8177 23.8802 76.4375 23.7448 76.125 23.5781C75.8229 23.401 75.625 23.1823 75.5312 22.9219L66.8906 1.57812C66.7135 1.58854 66.5417 1.66146 66.375 1.79688C66.3021 3.08854 65.9062 4.125 65.1875 4.90625L65.5469 5.82812L58.9531 22.4062C58.5365 23.4479 57.2552 24.099 55.1094 24.3594C55.0469 24.5052 55.0156 24.6354 55.0156 24.75C55.0156 24.875 55.0469 25 55.1094 25.125C56.2969 25.0833 57.25 25.0521 57.9688 25.0312C58.6979 25.0104 59.1979 25 59.4688 25C59.7083 25 60.25 25.0104 61.0938 25.0312C61.9479 25.0521 63.1042 25.0833 64.5625 25.125C64.625 25 64.6562 24.875 64.6562 24.75C64.6562 24.6354 64.625 24.5052 64.5625 24.3594C63.6979 24.276 62.9948 24.1875 62.4531 24.0938C61.9115 23.9896 61.4896 23.8802 61.1875 23.7656C60.8854 23.651 60.6823 23.526 60.5781 23.3906C60.474 23.2448 60.4219 23.0833 60.4219 22.9062C60.4219 22.7917 60.4427 22.6771 60.4844 22.5625L62.7656 16.8438C63.9219 16.8229 64.8542 16.8073 65.5625 16.7969C66.2812 16.7865 66.776 16.7812 67.0469 16.7812C67.6406 16.7812 68.1667 16.7865 68.625 16.7969C69.0938 16.7969 69.4948 16.8021 69.8281 16.8125L72.0938 22.5625C72.1458 22.7188 72.1719 22.8385 72.1719 22.9219C72.1719 23.2031 72.026 23.4531 71.7344 23.6719C71.4531 23.8906 71.1042 24.0417 70.6875 24.125L69 24.3594C68.9375 24.5052 68.9062 24.6354 68.9062 24.75C68.9062 24.875 68.9375 25 69 25.125C69.8854 25.0938 70.7812 25.0677 71.6875 25.0469C72.6042 25.026 73.5417 25.0156 74.5 25.0156C75.4583 25.0156 76.4271 25.026 77.4062 25.0469C78.3958 25.0677 79.4115 25.0938 80.4531 25.125C80.526 24.9792 80.5625 24.8542 80.5625 24.75C80.5625 24.6875 80.5521 24.625 80.5312 24.5625C80.5104 24.5 80.4844 24.4323 80.4531 24.3594ZM67.0469 15.5625C65.5365 15.5625 64.2917 15.5417 63.3125 15.5L66.2812 7.84375H66.3438L69.3281 15.5312C68.7656 15.5521 68.0052 15.5625 67.0469 15.5625ZM66.3125 9.48438L64.2344 14.8906C65.4948 14.9531 66.8802 14.9635 68.3906 14.9219L66.3125 9.48438ZM80.9375 23.7812C81.1979 24.4062 81.1875 25.0677 80.9062 25.7656H68.5156C68.2656 25.0469 68.2656 24.3854 68.5156 23.7812C69.651 23.7188 70.4531 23.6042 70.9219 23.4375C71.3906 23.2604 71.5521 22.9792 71.4062 22.5938L69.3594 17.4219C67.4323 17.349 65.3698 17.3698 63.1719 17.4844L61.1562 22.6562C61.0938 22.8333 61.1406 22.9948 61.2969 23.1406C61.4635 23.276 61.7292 23.3854 62.0938 23.4688C62.4583 23.5521 62.8854 23.6198 63.375 23.6719C63.8646 23.724 64.4167 23.7604 65.0312 23.7812C65.2917 24.4062 65.2812 25.0677 65 25.7656C61.5833 25.6406 58.1406 25.6406 54.6719 25.7656C54.3906 25.0677 54.3802 24.4062 54.6406 23.7812C56.7865 23.5312 58 23.0625 58.2812 22.375L64.875 5.79688C64.8333 5.71354 64.75 5.52604 64.625 5.23438C64.5104 4.93229 64.4427 4.73438 64.4219 4.64062C65.2344 3.81771 65.6823 2.75521 65.7656 1.45312C66.6823 1.00521 67.7604 0.75 69 0.6875L77.7656 22.4375C77.9635 22.9271 78.276 23.2552 78.7031 23.4219C79.1302 23.5781 79.875 23.6979 80.9375 23.7812ZM89.8125 22.8594C89.7292 18.5052 89.6875 15.2188 89.6875 13C89.6875 10.4375 89.7396 7.52604 89.8438 4.26562C89.8646 3.47396 91.6042 2.97396 95.0625 2.76562C95.125 2.56771 95.125 2.32292 95.0625 2.03125C92.3333 2.11458 90.2031 2.15625 88.6719 2.15625C87.3906 2.15625 85.5729 2.11458 83.2188 2.03125C83.1354 2.21875 83.1354 2.46354 83.2188 2.76562C85.6146 2.99479 86.8229 3.49479 86.8438 4.26562C86.9479 6.71354 87 9.625 87 13C87 16.3021 86.9375 19.5885 86.8125 22.8594C86.7917 23.6302 85.5833 24.1302 83.1875 24.3594C83.1042 24.526 83.1042 24.7708 83.1875 25.0938C84.9583 25.0312 86.776 25 88.6406 25C90.8594 25 92.9896 25.0312 95.0312 25.0938C95.1146 24.9271 95.1146 24.6823 95.0312 24.3594C91.5729 24.151 89.8333 23.651 89.8125 22.8594ZM82.7188 3.375C82.5417 2.6875 82.5625 2.01562 82.7812 1.35938C83.6979 1.35938 84.9375 1.38542 86.5 1.4375C88.0729 1.48958 89.1667 1.51562 89.7812 1.51562C90.2292 1.51562 91.0938 1.50521 92.375 1.48438C93.6562 1.46354 94.7656 1.45312 95.7031 1.45312C95.901 2.04688 95.9115 2.6875 95.7344 3.375C93.4323 3.60417 92.2708 3.91146 92.25 4.29688C92.125 6.90104 92.0625 10.1875 92.0625 14.1562C92.0625 17.9896 92.1146 20.8802 92.2188 22.8281C92.2188 22.8906 92.2448 22.9531 92.2969 23.0156C92.349 23.0781 92.4219 23.1302 92.5156 23.1719C92.6198 23.2135 92.724 23.2604 92.8281 23.3125C92.9323 23.3542 93.0729 23.3958 93.25 23.4375C93.4375 23.4792 93.5938 23.5156 93.7188 23.5469C93.8438 23.5781 94.0104 23.6094 94.2188 23.6406C94.4375 23.6719 94.6094 23.6979 94.7344 23.7188C94.8698 23.7396 95.0469 23.7604 95.2656 23.7812C95.4948 23.8021 95.651 23.8229 95.7344 23.8438C95.9115 24.4271 95.8802 25.0677 95.6406 25.7656C91.7969 25.6823 89.4635 25.6406 88.6406 25.6406C88.0781 25.6406 86.1146 25.6823 82.75 25.7656C82.4896 25.0469 82.4896 24.375 82.75 23.75C85.0104 23.5208 86.151 23.2135 86.1719 22.8281C86.2969 20.224 86.3594 16.9479 86.3594 13C86.3594 9.64583 86.3073 6.74479 86.2031 4.29688C86.1823 3.91146 85.0208 3.60417 82.7188 3.375ZM116.719 15.0156V12.9688C116.719 10.5625 116.667 7.73438 116.562 4.48438C116.542 3.93229 115.401 3.5625 113.141 3.375C112.995 3.01042 112.922 2.67708 112.922 2.375C112.922 2.1875 112.995 1.86979 113.141 1.42188C114.724 1.48438 116.312 1.51562 117.906 1.51562C119.51 1.51562 121.156 1.48438 122.844 1.42188C122.99 1.86979 123.062 2.1875 123.062 2.375C123.062 2.67708 122.99 3.01042 122.844 3.375C120.688 3.58333 119.599 3.95312 119.578 4.48438C119.443 6.68229 119.375 9.89583 119.375 14.125C119.375 18.8958 119.443 22.7552 119.578 25.7031L118.297 25.7344L103.469 7.59375C103.469 7.78125 103.464 8.125 103.453 8.625C103.443 9.11458 103.438 9.49479 103.438 9.76562C103.438 14.7969 103.505 19.0833 103.641 22.625C103.661 23.1875 104.802 23.5625 107.062 23.75C107.208 24.1146 107.281 24.4479 107.281 24.75C107.281 24.9792 107.208 25.3177 107.062 25.7656C105.458 25.7031 103.87 25.6719 102.297 25.6719C100.693 25.6719 99.0469 25.7031 97.3594 25.7656C97.2135 25.3177 97.1406 24.9792 97.1406 24.75C97.1406 24.4479 97.2135 24.1146 97.3594 23.75C99.5156 23.5417 100.604 23.1667 100.625 22.625C100.75 20.4375 100.812 17.2292 100.812 13C100.812 9.76042 100.771 6.86979 100.688 4.32812C100.01 3.79688 98.9792 3.47917 97.5938 3.375C97.4375 3.09375 97.3594 2.77083 97.3594 2.40625C97.3594 2.02083 97.4583 1.67188 97.6562 1.35938C99.8333 1.46354 102.583 1.51562 105.906 1.51562L116.719 15.0156ZM118.734 14.125C118.734 10.9688 118.802 7.75521 118.938 4.48438C118.979 3.54688 120.13 2.97396 122.391 2.76562C122.474 2.58854 122.474 2.34375 122.391 2.03125C120.422 2.09375 119.026 2.125 118.203 2.125C116.901 2.125 115.417 2.09375 113.75 2.03125C113.667 2.34375 113.667 2.58854 113.75 2.76562C116.031 2.97396 117.182 3.54688 117.203 4.48438C117.307 7.73438 117.359 10.5625 117.359 12.9688C117.359 14.375 117.339 16.2708 117.297 18.6562L103.828 2.15625C101.484 2.15625 99.5417 2.11458 98 2.03125C97.9167 2.28125 97.9167 2.52604 98 2.76562C99.3438 2.84896 100.453 3.27604 101.328 4.04688C101.411 6.57812 101.453 9.5625 101.453 13C101.453 16.1562 101.391 19.3646 101.266 22.625C101.224 23.5729 100.073 24.151 97.8125 24.3594C97.7292 24.526 97.7292 24.7708 97.8125 25.0938C99.7708 25.0312 101.167 25 102 25C103.302 25 104.786 25.0312 106.453 25.0938C106.536 24.7708 106.536 24.526 106.453 24.3594C104.172 24.151 103.021 23.5729 103 22.625C102.896 19.3854 102.844 16.5625 102.844 14.1562C102.844 11.4062 102.875 8.68229 102.938 5.98438H103.094L118.609 25.0938L118.906 25.0625C118.792 22.6146 118.734 18.9688 118.734 14.125ZM128.141 22.1562C127.818 22.5104 127.656 22.9583 127.656 23.5C127.656 23.7604 127.698 24.0104 127.781 24.25C127.875 24.4792 128 24.6823 128.156 24.8594C128.312 25.026 128.49 25.1615 128.688 25.2656C128.896 25.3698 129.12 25.4219 129.359 25.4219C129.589 25.4219 129.802 25.3698 130 25.2656C130.208 25.1615 130.391 25.026 130.547 24.8594C130.703 24.6823 130.823 24.4792 130.906 24.25C131 24.0104 131.047 23.7604 131.047 23.5C131.047 23.2396 131 22.9948 130.906 22.7656C130.823 22.5365 130.703 22.3333 130.547 22.1562C130.391 21.9792 130.208 21.8385 130 21.7344C129.802 21.6302 129.589 21.5781 129.359 21.5781C128.891 21.5781 128.484 21.7708 128.141 22.1562ZM129.578 20.9375C131.922 20.9375 133.094 21.7917 133.094 23.5C133.094 25.2083 131.922 26.0625 129.578 26.0625C129.234 26.0625 128.906 25.9948 128.594 25.8594C128.292 25.724 128.021 25.5417 127.781 25.3125C127.552 25.0833 127.365 24.8125 127.219 24.5C127.083 24.1875 127.016 23.8542 127.016 23.5C127.016 23.1458 127.083 22.8125 127.219 22.5C127.354 22.1875 127.536 21.9167 127.766 21.6875C128.005 21.4583 128.281 21.276 128.594 21.1406C128.906 21.0052 129.234 20.9375 129.578 20.9375Z" fill="black"/>
<path d="M26.3594 24.3594L27.2785 23.9655L27.0336 23.3941L26.4129 23.3608L26.3594 24.3594ZM24.6562 24.2344L24.5416 25.2278L24.552 25.229L24.5623 25.23L24.6562 24.2344ZM23.1719 23.9844L22.9454 24.9584L23.1719 23.9844ZM22.0312 23.5781L21.5255 24.4408L21.5429 24.451L21.5607 24.4605L22.0312 23.5781ZM21.4375 22.9219L22.3784 22.5832L22.3718 22.5648L22.3644 22.5466L21.4375 22.9219ZM12.7969 1.57812L13.7238 1.20288L13.4545 0.537711L12.7382 0.579851L12.7969 1.57812ZM12.2812 1.79688L11.6507 1.02076L11.3077 1.29938L11.2828 1.74051L12.2812 1.79688ZM11.0938 4.90625L10.3578 4.22919L9.93547 4.68826L10.162 5.26946L11.0938 4.90625ZM11.4531 5.82812L12.3823 6.1977L12.5279 5.8318L12.3848 5.46492L11.4531 5.82812ZM4.85938 22.4062L5.78785 22.7776L5.78857 22.7758L4.85938 22.4062ZM1.01562 24.3594L0.89515 23.3667L0.323368 23.436L0.09648 23.9655L1.01562 24.3594ZM1.01562 25.125L0.121198 25.5722L0.408549 26.1469L1.05069 26.1244L1.01562 25.125ZM3.875 25.0312L3.84644 24.0317L3.84603 24.0317L3.875 25.0312ZM7 25.0312L6.97532 26.0309L6.97562 26.031L7 25.0312ZM10.4688 25.125L10.4402 26.1246L11.0779 26.1428L11.3632 25.5722L10.4688 25.125ZM10.4688 24.3594L11.3879 23.9655L11.1545 23.4208L10.5647 23.364L10.4688 24.3594ZM8.35938 24.0938L8.17053 25.0758L8.17967 25.0775L8.18883 25.0791L8.35938 24.0938ZM6.48438 23.3906L5.67064 23.9719L5.68094 23.9863L5.69175 24.0003L6.48438 23.3906ZM6.39062 22.5625L5.4618 22.192L5.45609 22.2063L5.45083 22.2208L6.39062 22.5625ZM8.67188 16.8438L8.65386 15.8439L7.98931 15.8559L7.74305 16.4732L8.67188 16.8438ZM11.4688 16.7969L11.4543 15.797L11.454 15.797L11.4688 16.7969ZM14.5312 16.7969L14.5085 17.7966L14.5199 17.7969H14.5312V16.7969ZM15.7344 16.8125L16.6648 16.4459L16.4235 15.8335L15.7656 15.813L15.7344 16.8125ZM18 22.5625L18.9487 22.2463L18.9402 22.2208L18.9304 22.1959L18 22.5625ZM17.6406 23.6719L17.0406 22.8719L17.0336 22.8771L17.0267 22.8825L17.6406 23.6719ZM16.5938 24.125L16.7313 25.1155L16.7607 25.1114L16.7899 25.1056L16.5938 24.125ZM14.9062 24.3594L14.7687 23.3689L14.2095 23.4465L13.9871 23.9655L14.9062 24.3594ZM14.9062 25.125L14.0118 25.5722L14.2992 26.147L14.9415 26.1244L14.9062 25.125ZM17.5938 25.0469L17.571 24.0471L17.5708 24.0471L17.5938 25.0469ZM23.3125 25.0469L23.2912 26.0466L23.2915 26.0467L23.3125 25.0469ZM26.3594 25.125L26.3294 26.1246L26.9681 26.1437L27.2538 25.5722L26.3594 25.125ZM9.21875 15.5L8.28639 15.1385L7.78181 16.4398L9.17624 16.4991L9.21875 15.5ZM12.1875 7.84375V6.84375H11.5027L11.2551 7.48222L12.1875 7.84375ZM12.25 7.84375L13.1822 7.48185L12.9345 6.84375H12.25V7.84375ZM15.2344 15.5312L15.2714 16.5306L16.6749 16.4786L16.1666 15.1694L15.2344 15.5312ZM12.2188 9.48438L13.1529 9.12738L12.2214 6.69029L11.2853 9.12558L12.2188 9.48438ZM10.1406 14.8906L9.20721 14.5318L8.71166 15.821L10.0911 15.8894L10.1406 14.8906ZM14.2969 14.9219L14.3245 15.9215L15.7346 15.8826L15.231 14.5649L14.2969 14.9219ZM26.8438 23.7812L27.7668 23.3966L27.5316 22.8321L26.9219 22.7843L26.8438 23.7812ZM26.8125 25.7656V26.7656H27.4877L27.74 26.1394L26.8125 25.7656ZM14.4219 25.7656L13.4774 26.0941L13.7109 26.7656H14.4219V25.7656ZM14.4219 23.7812L14.3669 22.7828L13.7385 22.8174L13.4979 23.3989L14.4219 23.7812ZM16.8281 23.4375L17.1631 24.3797L17.1724 24.3764L17.1815 24.373L16.8281 23.4375ZM17.3125 22.5938L18.2478 22.2399L18.2451 22.2328L18.2423 22.2258L17.3125 22.5938ZM15.2656 17.4219L16.1955 17.0539L15.9554 16.4473L15.3034 16.4226L15.2656 17.4219ZM9.07812 17.4844L9.02606 16.4857L8.38096 16.5194L8.14638 17.1212L9.07812 17.4844ZM7.0625 22.6562L6.13076 22.2931L6.12489 22.3082L6.11951 22.3234L7.0625 22.6562ZM7.20312 23.1406L6.52081 23.8717L6.5459 23.8951L6.57253 23.9167L7.20312 23.1406ZM8 23.4688L7.77718 24.4436L8 23.4688ZM10.9375 23.7812L11.8606 23.3966L11.6135 22.8036L10.9714 22.7818L10.9375 23.7812ZM10.9062 25.7656L10.8697 26.765L11.5713 26.7906L11.8338 26.1394L10.9062 25.7656ZM0.578125 25.7656L-0.349394 26.1394L-0.0871129 26.7902L0.614138 26.765L0.578125 25.7656ZM0.546875 23.7812L0.431153 22.788L-0.150843 22.8558L-0.376202 23.3966L0.546875 23.7812ZM4.1875 22.375L5.11309 22.7537L5.1167 22.7446L4.1875 22.375ZM10.7812 5.79688L11.7104 6.16645L11.876 5.75027L11.6757 5.34966L10.7812 5.79688ZM10.5312 5.23438L9.59625 5.58903L9.60376 5.60883L9.6121 5.62829L10.5312 5.23438ZM10.3281 4.64062L9.61653 3.93804L9.23375 4.32572L9.35194 4.85756L10.3281 4.64062ZM11.6719 1.45312L11.2328 0.554651L10.711 0.809639L10.6739 1.38926L11.6719 1.45312ZM14.9062 0.6875L15.8338 0.313698L15.5674 -0.347108L14.8559 -0.311231L14.9062 0.6875ZM23.6719 22.4375L22.7444 22.8113L22.7448 22.8123L23.6719 22.4375ZM24.6094 23.4219L24.2458 24.3535L24.2558 24.3573L24.2658 24.361L24.6094 23.4219ZM26.4129 23.3608C25.8423 23.3302 25.2881 23.2895 24.7502 23.2388L24.5623 25.23C25.1286 25.2834 25.7098 25.326 26.3059 25.3579L26.4129 23.3608ZM24.7709 23.241C24.2602 23.182 23.8034 23.1046 23.3984 23.0104L22.9454 24.9584C23.4362 25.0725 23.969 25.1617 24.5416 25.2278L24.7709 23.241ZM23.3984 23.0104C23.0117 22.9204 22.7184 22.8113 22.5018 22.6958L21.5607 24.4605C21.9691 24.6783 22.4362 24.84 22.9454 24.9584L23.3984 23.0104ZM22.537 22.7154C22.4579 22.6691 22.417 22.6316 22.3978 22.6103C22.3884 22.5999 22.3836 22.5929 22.3815 22.5894C22.3795 22.5861 22.3788 22.5843 22.3784 22.5832L20.4966 23.2606C20.6888 23.7944 21.0764 24.1775 21.5255 24.4408L22.537 22.7154ZM22.3644 22.5466L13.7238 1.20288L11.87 1.95337L20.5106 23.2971L22.3644 22.5466ZM12.7382 0.579851C12.311 0.604977 11.945 0.781601 11.6507 1.02076L12.9118 2.57299C12.933 2.55578 12.938 2.556 12.9257 2.56121C12.9195 2.56382 12.91 2.56729 12.8973 2.57031C12.8846 2.57335 12.8705 2.57552 12.8556 2.5764L12.7382 0.579851ZM11.2828 1.74051C11.22 2.85344 10.8878 3.65317 10.3578 4.22919L11.8297 5.58331C12.7372 4.59683 13.1967 3.32364 13.2797 1.85324L11.2828 1.74051ZM10.162 5.26946L10.5214 6.19133L12.3848 5.46492L12.0255 4.54304L10.162 5.26946ZM10.5239 5.45855L3.93018 22.0367L5.78857 22.7758L12.3823 6.1977L10.5239 5.45855ZM3.9309 22.0349C3.73933 22.5138 3.00648 23.1104 0.89515 23.3667L1.1361 25.3521C3.31643 25.0875 5.14609 24.382 5.78785 22.7776L3.9309 22.0349ZM0.09648 23.9655C-0.000192795 24.191 -0.078125 24.4586 -0.078125 24.75H1.92188C1.92188 24.7832 1.91742 24.8009 1.9177 24.7998C1.91777 24.7995 1.91877 24.7954 1.92149 24.7874C1.92421 24.7794 1.92844 24.7681 1.93477 24.7533L0.09648 23.9655ZM-0.078125 24.75C-0.078125 25.0478 -0.00244594 25.3249 0.121198 25.5722L1.91005 24.6778C1.9087 24.6751 1.91196 24.681 1.91546 24.695C1.91905 24.7093 1.92188 24.7283 1.92188 24.75H-0.078125ZM1.05069 26.1244C2.23728 26.0828 3.18813 26.0516 3.90397 26.0308L3.84603 24.0317C3.12437 24.0526 2.16897 24.0839 0.980559 24.1256L1.05069 26.1244ZM3.90356 26.0308C4.63394 26.01 5.12042 26 5.375 26V24C5.08791 24 4.57439 24.0109 3.84644 24.0317L3.90356 26.0308ZM5.375 26C5.59973 26 6.12805 26.01 6.97532 26.0309L7.02468 24.0316C6.18445 24.0108 5.62943 24 5.375 24V26ZM6.97562 26.031C7.82776 26.0517 8.98243 26.0829 10.4402 26.1246L10.4973 24.1254C9.03841 24.0837 7.88057 24.0524 7.02438 24.0315L6.97562 26.031ZM11.3632 25.5722C11.4868 25.3249 11.5625 25.0478 11.5625 24.75H9.5625C9.5625 24.7283 9.56533 24.7093 9.56892 24.695C9.57241 24.681 9.57567 24.6751 9.57432 24.6778L11.3632 25.5722ZM11.5625 24.75C11.5625 24.4586 11.4846 24.191 11.3879 23.9655L9.5496 24.7533C9.55594 24.7681 9.56016 24.7794 9.56288 24.7874C9.56561 24.7954 9.5666 24.7995 9.56668 24.7998C9.56695 24.8009 9.5625 24.7832 9.5625 24.75H11.5625ZM10.5647 23.364C9.71258 23.2819 9.03697 23.1962 8.52992 23.1084L8.18883 25.0791C8.76511 25.1788 9.49575 25.2702 10.3728 25.3548L10.5647 23.364ZM8.54822 23.1117C8.02951 23.012 7.6721 22.9155 7.4484 22.8306L6.7391 24.7006C7.11957 24.8449 7.60591 24.9672 8.17053 25.0758L8.54822 23.1117ZM7.4484 22.8306C7.33711 22.7884 7.27171 22.7544 7.23894 22.7343C7.22356 22.7248 7.22123 22.722 7.22758 22.7273C7.23385 22.7327 7.25305 22.7498 7.277 22.7809L5.69175 24.0003C5.97118 24.3636 6.39386 24.5697 6.7391 24.7006L7.4484 22.8306ZM7.29811 22.8094C7.30247 22.8155 7.3116 22.8305 7.3189 22.8532C7.32623 22.8759 7.32812 22.8952 7.32812 22.9062H5.32812C5.32812 23.2944 5.4469 23.6586 5.67064 23.9719L7.29811 22.8094ZM7.32812 22.9062C7.32812 22.9099 7.32776 22.9125 7.32762 22.9133C7.3275 22.9139 7.32794 22.9111 7.33042 22.9042L5.45083 22.2208C5.3719 22.4378 5.32812 22.6678 5.32812 22.9062H7.32812ZM7.31945 22.933L9.6007 17.2143L7.74305 16.4732L5.4618 22.192L7.31945 22.933ZM8.68989 17.8436C9.84563 17.8228 10.7767 17.8072 11.4835 17.7968L11.454 15.797C10.7441 15.8074 9.81062 15.8231 8.65386 15.8439L8.68989 17.8436ZM11.4832 17.7968C12.2025 17.7863 12.6905 17.7812 12.9531 17.7812V15.7812C12.6741 15.7812 12.1725 15.7866 11.4543 15.797L11.4832 17.7968ZM12.9531 17.7812C13.5414 17.7812 14.0596 17.7864 14.5085 17.7966L14.554 15.7971C14.0862 15.7865 13.5524 15.7812 12.9531 15.7812V17.7812ZM14.5312 17.7969C14.9934 17.7969 15.3834 17.802 15.7031 17.812L15.7656 15.813C15.4187 15.8021 15.0066 15.7969 14.5312 15.7969V17.7969ZM14.804 17.1791L17.0696 22.9291L18.9304 22.1959L16.6648 16.4459L14.804 17.1791ZM17.0513 22.8787C17.0602 22.9053 17.0669 22.9274 17.072 22.9452C17.077 22.9631 17.0799 22.9752 17.0814 22.982C17.0829 22.989 17.0824 22.9878 17.0814 22.9797C17.0804 22.972 17.0781 22.9519 17.0781 22.9219H19.0781C19.0781 22.671 19.0083 22.4252 18.9487 22.2463L17.0513 22.8787ZM17.0781 22.9219C17.0781 22.9046 17.0805 22.8839 17.0865 22.8622C17.0924 22.8408 17.0999 22.8251 17.105 22.8164C17.1143 22.8004 17.1064 22.8226 17.0406 22.8719L18.2406 24.4719C18.7024 24.1256 19.0781 23.6077 19.0781 22.9219H17.0781ZM17.0267 22.8825C16.8894 22.9893 16.6911 23.0857 16.3976 23.1444L16.7899 25.1056C17.3297 24.9976 17.8293 24.792 18.2546 24.4612L17.0267 22.8825ZM16.4562 23.1345L14.7687 23.3689L15.0438 25.3499L16.7313 25.1155L16.4562 23.1345ZM13.9871 23.9655C13.8904 24.191 13.8125 24.4586 13.8125 24.75H15.8125C15.8125 24.7832 15.808 24.8009 15.8083 24.7998C15.8084 24.7995 15.8094 24.7954 15.8121 24.7874C15.8148 24.7794 15.8191 24.7681 15.8254 24.7533L13.9871 23.9655ZM13.8125 24.75C13.8125 25.0478 13.8882 25.3249 14.0118 25.5722L15.8007 24.6778C15.7993 24.6751 15.8026 24.681 15.8061 24.695C15.8097 24.7093 15.8125 24.7283 15.8125 24.75H13.8125ZM14.9415 26.1244C15.8227 26.0933 16.7145 26.0674 17.6167 26.0466L17.5708 24.0471C16.6605 24.0681 15.7606 24.0942 14.871 24.1256L14.9415 26.1244ZM17.6165 26.0466C18.5252 26.026 19.4552 26.0156 20.4062 26.0156V24.0156C19.4407 24.0156 18.4956 24.0261 17.571 24.0471L17.6165 26.0466ZM20.4062 26.0156C21.3573 26.0156 22.319 26.026 23.2912 26.0466L23.3338 24.0471C22.3477 24.0261 21.3718 24.0156 20.4062 24.0156V26.0156ZM23.2915 26.0467C24.2779 26.0674 25.2905 26.0934 26.3294 26.1246L26.3894 24.1254C25.3449 24.0941 24.3263 24.068 23.3335 24.0471L23.2915 26.0467ZM27.2538 25.5722C27.3608 25.3582 27.4688 25.0727 27.4688 24.75H25.4688C25.4688 24.6871 25.4794 24.6487 25.4814 24.6419C25.4835 24.6345 25.481 24.6458 25.4649 24.6778L27.2538 25.5722ZM27.4688 24.75C27.4688 24.5743 27.4392 24.4052 27.3862 24.2463L25.4888 24.8787C25.4775 24.8448 25.4688 24.8007 25.4688 24.75H27.4688ZM27.3862 24.2463C27.355 24.1528 27.3186 24.0589 27.2785 23.9655L25.4402 24.7533C25.4627 24.8057 25.4783 24.8472 25.4888 24.8787L27.3862 24.2463ZM12.9531 14.5625C11.4502 14.5625 10.2209 14.5417 9.26126 14.5009L9.17624 16.4991C10.175 16.5416 11.4352 16.5625 12.9531 16.5625V14.5625ZM10.1511 15.8615L13.1199 8.20528L11.2551 7.48222L8.28639 15.1385L10.1511 15.8615ZM12.1875 8.84375H12.25V6.84375H12.1875V8.84375ZM11.3178 8.20565L14.3022 15.8931L16.1666 15.1694L13.1822 7.48185L11.3178 8.20565ZM15.1974 14.5319C14.6528 14.5521 13.9064 14.5625 12.9531 14.5625V16.5625C13.9165 16.5625 14.691 16.5521 15.2714 16.5306L15.1974 14.5319ZM11.2853 9.12558L9.20721 14.5318L11.074 15.2494L13.1522 9.84317L11.2853 9.12558ZM10.0911 15.8894C11.3816 15.9534 12.7932 15.9637 14.3245 15.9215L14.2693 13.9223C12.7798 13.9633 11.4205 13.9529 10.1902 13.8919L10.0911 15.8894ZM15.231 14.5649L13.1529 9.12738L11.2846 9.84137L13.3628 15.2789L15.231 14.5649ZM25.9207 24.1659C26.0684 24.5205 26.08 24.9079 25.885 25.3918L27.74 26.1394C28.1075 25.2275 28.1399 24.292 27.7668 23.3966L25.9207 24.1659ZM26.8125 24.7656H14.4219V26.7656H26.8125V24.7656ZM15.3664 25.4371C15.1829 24.9095 15.2047 24.5048 15.3459 24.1636L13.4979 23.3989C13.139 24.266 13.1609 25.1842 13.4774 26.0941L15.3664 25.4371ZM14.4768 24.7797C15.6172 24.717 16.5466 24.5989 17.1631 24.3797L16.4931 22.4953C16.1721 22.6094 15.4974 22.7205 14.3669 22.7828L14.4768 24.7797ZM17.1815 24.373C17.5204 24.2449 17.9237 24.0172 18.168 23.5916C18.4365 23.1239 18.3955 22.6302 18.2478 22.2399L16.3772 22.9476C16.3785 22.9511 16.3628 22.9117 16.3645 22.8399C16.3664 22.7613 16.3885 22.6744 16.4335 22.5959C16.5164 22.4515 16.6046 22.453 16.4747 22.502L17.1815 24.373ZM18.2423 22.2258L16.1955 17.0539L14.3358 17.7899L16.3827 22.9617L18.2423 22.2258ZM15.3034 16.4226C13.3426 16.3484 11.2498 16.3698 9.02606 16.4857L9.13019 18.483C11.3023 18.3698 13.3345 18.3495 15.2278 18.4212L15.3034 16.4226ZM8.14638 17.1212L6.13076 22.2931L7.99424 23.0194L10.0099 17.8475L8.14638 17.1212ZM6.11951 22.3234C6.02721 22.5849 6.002 22.8843 6.09044 23.189C6.17603 23.4838 6.34616 23.7087 6.52081 23.8717L7.88544 22.4096C7.90384 22.4267 7.97241 22.498 8.01113 22.6313C8.05269 22.7745 8.03529 22.9046 8.00549 22.9891L6.11951 22.3234ZM6.57253 23.9167C6.91587 24.1957 7.35847 24.3479 7.77718 24.4436L8.22282 22.4939C8.07932 22.4611 7.97714 22.428 7.90809 22.3995C7.83701 22.3703 7.82086 22.3541 7.83372 22.3645L6.57253 23.9167ZM7.77718 24.4436C8.1902 24.538 8.65804 24.6112 9.17546 24.6663L9.38704 22.6775C8.9253 22.6284 8.53897 22.5662 8.22282 22.4939L7.77718 24.4436ZM9.17546 24.6663C9.69395 24.7214 10.2706 24.7592 10.9036 24.7807L10.9714 22.7818C10.3752 22.7616 9.84771 22.7265 9.38704 22.6775L9.17546 24.6663ZM10.0144 24.1659C10.1622 24.5205 10.1738 24.9079 9.97873 25.3918L11.8338 26.1394C12.2012 25.2275 12.2337 24.292 11.8606 23.3966L10.0144 24.1659ZM10.9428 24.7663C7.5016 24.6404 4.03468 24.6404 0.542112 24.7663L0.614138 26.765C4.05907 26.6408 7.47757 26.6409 10.8697 26.765L10.9428 24.7663ZM1.50564 25.3918C1.31061 24.9079 1.32219 24.5205 1.46995 24.1659L-0.376202 23.3966C-0.749278 24.292 -0.716859 25.2275 -0.349394 26.1394L1.50564 25.3918ZM0.662597 24.7745C1.77197 24.6453 2.70669 24.4531 3.42673 24.175C4.11026 23.911 4.81275 23.4877 5.11305 22.7536L3.26195 21.9964C3.281 21.9498 3.2361 22.1046 2.70609 22.3094C2.21258 22.5 1.46761 22.6672 0.431153 22.788L0.662597 24.7745ZM5.1167 22.7446L11.7104 6.16645L9.85205 5.4273L3.2583 22.0054L5.1167 22.7446ZM11.6757 5.34966C11.6497 5.29776 11.5784 5.13916 11.4504 4.84046L9.6121 5.62829C9.73409 5.91292 9.82944 6.12932 9.88682 6.24409L11.6757 5.34966ZM11.4662 4.87972C11.411 4.73408 11.3696 4.62029 11.3407 4.53569C11.3083 4.44091 11.3018 4.4126 11.3043 4.42369L9.35194 4.85756C9.39143 5.03526 9.48815 5.30404 9.59625 5.58903L11.4662 4.87972ZM11.0397 5.34321C12.0433 4.32673 12.5732 3.0266 12.6698 1.51699L10.6739 1.38926C10.6039 2.48382 10.2379 3.30869 9.61653 3.93804L11.0397 5.34321ZM12.1109 2.3516C12.8828 1.9744 13.8235 1.74336 14.9566 1.68623L14.8559 -0.311231C13.5098 -0.243363 12.2942 0.0360181 11.2328 0.554651L12.1109 2.3516ZM13.9787 1.0613L22.7444 22.8113L24.5994 22.0637L15.8338 0.313698L13.9787 1.0613ZM22.7448 22.8123C23.0287 23.5147 23.5225 24.0712 24.2458 24.3535L24.9729 22.4903C24.842 22.4392 24.7109 22.3394 24.599 22.0627L22.7448 22.8123ZM24.2658 24.361C24.8339 24.5688 25.701 24.6947 26.7656 24.7782L26.9219 22.7843C25.8615 22.7011 25.2391 22.5874 24.953 22.4828L24.2658 24.361ZM35.6875 4.26562L36.687 4.29756L36.6872 4.29193L35.6875 4.26562ZM40.9062 2.76562L40.9664 3.76382L41.6528 3.72247L41.8598 3.06676L40.9062 2.76562ZM40.9062 2.03125L41.8841 1.82172L41.7093 1.00626L40.8757 1.03172L40.9062 2.03125ZM29.0625 2.03125L29.0979 1.03188L28.423 1.00799L28.1487 1.62511L29.0625 2.03125ZM29.0625 2.76562L28.0985 3.03155L28.2817 3.6955L28.9673 3.76108L29.0625 2.76562ZM32.6875 4.26562L31.6879 4.29264L31.6881 4.30039L31.6884 4.30814L32.6875 4.26562ZM32.6562 22.8594L31.6569 22.8212L31.6566 22.8324L32.6562 22.8594ZM29.0312 24.3594L28.936 23.3639L28.2255 23.4319L28.0589 24.126L29.0312 24.3594ZM29.0312 25.0938L28.0665 25.3569L28.274 26.1178L29.0623 26.0933L29.0312 25.0938ZM52.1719 18.8594L53.0705 19.2981L53.2808 18.8673L53.0767 18.4336L52.1719 18.8594ZM51.625 18.4375L51.9723 17.4998L51.1589 17.1985L50.7457 17.9612L51.625 18.4375ZM50.2812 20.4375L49.5153 19.7946L50.2812 20.4375ZM48.3438 22.2031L48.9319 23.0119L48.9387 23.0069L48.3438 22.2031ZM45.3438 23.5625L45.0835 22.597L45.0813 22.5975L45.3438 23.5625ZM35.6562 24.0469L34.6565 24.0697L34.6788 25.0469H35.6562V24.0469ZM38.0312 23.4062L37.0316 23.4314L37.0561 24.4062H38.0312V23.4062ZM51.3438 17.6406L51.69 16.7025L50.8791 16.4032L50.4656 17.1623L51.3438 17.6406ZM53 18.8594L53.8562 19.376L54.132 18.9189L53.9057 18.4354L53 18.8594ZM50.375 25.6406V26.6406H51.2561L51.367 25.7665L50.375 25.6406ZM28.5938 25.7344L27.6422 26.0418L27.8734 26.7574L28.625 26.7339L28.5938 25.7344ZM28.5625 23.75L28.4625 22.755L27.8012 22.8214L27.6064 23.457L28.5625 23.75ZM32.0156 22.8281L33.0142 22.8821L33.0146 22.8742L33.0149 22.8663L32.0156 22.8281ZM32.0469 4.29688L33.046 4.25436L33.0454 4.2429L32.0469 4.29688ZM28.5625 3.375L27.5941 3.62443L27.7683 4.30089L28.4634 4.37008L28.5625 3.375ZM28.625 1.35938L28.6824 0.361022L27.9183 0.317112L27.6763 1.04315L28.625 1.35938ZM41.5469 1.45312L42.4956 1.1369L42.2676 0.453125H41.5469V1.45312ZM41.5781 3.375L41.6772 4.37008L42.3723 4.30089L42.5465 3.62443L41.5781 3.375ZM38.0938 4.29688L37.0952 4.2429L37.0949 4.24893L38.0938 4.29688ZM36.5312 13C36.5312 10.4506 36.5831 7.55004 36.687 4.29756L34.688 4.23369C34.5836 7.50204 34.5312 10.4244 34.5312 13H36.5312ZM36.6872 4.29193C36.6814 4.50938 36.5457 4.58511 36.617 4.53282C36.6996 4.47215 36.898 4.36891 37.2841 4.25796C38.0458 4.03902 39.2568 3.8668 40.9664 3.76382L40.8461 1.76743C39.0973 1.87278 37.7094 2.05473 36.7316 2.33579C36.2478 2.47484 35.7912 2.65806 35.4338 2.92031C35.065 3.19094 34.704 3.62604 34.6878 4.23932L36.6872 4.29193ZM41.8598 3.06676C41.9924 2.64687 41.9679 2.21322 41.8841 1.82172L39.9284 2.24078C39.948 2.3321 39.9531 2.39493 39.9531 2.43359C39.9531 2.47165 39.9482 2.4786 39.9527 2.46449L41.8598 3.06676ZM40.8757 1.03172C38.1502 1.11494 36.0318 1.15625 34.5156 1.15625V3.15625C36.062 3.15625 38.204 3.11423 40.9368 3.03078L40.8757 1.03172ZM34.5156 1.15625C33.2521 1.15625 31.4483 1.11508 29.0979 1.03188L29.0271 3.03062C31.3851 3.11409 33.2166 3.15625 34.5156 3.15625V1.15625ZM28.1487 1.62511C27.933 2.1104 27.9846 2.61863 28.0985 3.03155L30.0265 2.4997C30.0024 2.41238 30 2.367 30 2.35547C30 2.34642 30.0014 2.38104 29.9763 2.43739L28.1487 1.62511ZM28.9673 3.76108C30.1346 3.87274 30.9177 4.04386 31.3833 4.23652C31.8965 4.44887 31.6943 4.53076 31.6879 4.29264L33.6871 4.23861C33.6599 3.22966 32.8431 2.67613 32.148 2.38848C31.4052 2.08114 30.3862 1.88768 29.1577 1.77017L28.9673 3.76108ZM31.6884 4.30814C31.7918 6.73775 31.8438 9.63432 31.8438 13H33.8438C33.8438 9.61568 33.7915 6.68933 33.6866 4.22311L31.6884 4.30814ZM31.8438 13C31.8438 16.2895 31.7815 19.5632 31.657 22.8212L33.6555 22.8976C33.781 19.6139 33.8438 16.3147 33.8438 13H31.8438ZM31.6566 22.8324C31.6631 22.5942 31.8652 22.6761 31.352 22.8885C30.8864 23.0811 30.1033 23.2523 28.936 23.3639L29.1265 25.3548C30.355 25.2373 31.374 25.0439 32.1167 24.7365C32.8119 24.4489 33.6286 23.8953 33.6559 22.8864L31.6566 22.8324ZM28.0589 24.126C27.9622 24.5288 27.9543 24.9457 28.0665 25.3569L29.996 24.8306C29.9832 24.7835 29.9753 24.7108 30.0036 24.5927L28.0589 24.126ZM29.0623 26.0933C31.0539 26.0314 35.7087 26 43.0469 26V24C35.7183 24 31.0294 24.0311 29.0002 24.0942L29.0623 26.0933ZM43.0469 26C45.643 26 47.7725 25.5183 49.2719 24.3937L48.0719 22.7937C47.0713 23.5442 45.4507 24 43.0469 24V26ZM49.2719 24.3937C50.7013 23.3217 51.9539 21.585 53.0705 19.2981L51.2733 18.4206C50.2232 20.5712 49.1424 21.9908 48.0719 22.7937L49.2719 24.3937ZM53.0767 18.4336C52.8348 17.9195 52.3715 17.6476 51.9723 17.4998L51.2777 19.3752C51.3127 19.3882 51.3362 19.3992 51.3504 19.4067C51.3646 19.4142 51.3672 19.417 51.3619 19.4129C51.3563 19.4086 51.3418 19.3965 51.3236 19.3748C51.3051 19.3526 51.2847 19.3227 51.2671 19.2852L53.0767 18.4336ZM50.7457 17.9612C50.3678 18.659 49.9568 19.2686 49.5153 19.7946L51.0472 21.0804C51.5849 20.4397 52.0697 19.716 52.5043 18.9138L50.7457 17.9612ZM49.5153 19.7946C49.089 20.3026 48.506 20.8388 47.7488 21.3994L48.9387 23.0069C49.7856 22.3799 50.4944 21.7391 51.0472 21.0804L49.5153 19.7946ZM47.7556 21.3944C47.0736 21.8904 46.1919 22.2982 45.0835 22.597L45.604 24.528C46.8914 24.181 48.0097 23.6826 48.9319 23.0119L47.7556 21.3944ZM45.0813 22.5975C43.9962 22.8926 42.7379 23.0469 41.2969 23.0469V25.0469C42.8767 25.0469 44.3163 24.8782 45.6062 24.5275L45.0813 22.5975ZM41.2969 23.0469H35.6562V25.0469H41.2969V23.0469ZM36.656 24.0241C36.5728 20.3755 36.5312 16.7008 36.5312 13H34.5312C34.5312 16.7158 34.573 20.4057 34.6565 24.0697L36.656 24.0241ZM36.9062 14.1562C36.9062 17.02 36.9481 20.1118 37.0316 23.4314L39.0309 23.3811C38.9478 20.0757 38.9062 17.0008 38.9062 14.1562H36.9062ZM38.0312 24.4062H41.2656V22.4062H38.0312V24.4062ZM41.2656 24.4062C43.7183 24.4062 45.8926 23.8957 47.7505 22.8328C49.6113 21.7683 51.0983 20.1817 52.2219 18.119L50.4656 17.1623C49.4954 18.9433 48.2559 20.2395 46.7573 21.0968C45.2559 21.9558 43.4379 22.4062 41.2656 22.4062V24.4062ZM50.9975 18.5788C51.7921 18.872 52.0343 19.1551 52.0943 19.2833L53.9057 18.4354C53.5074 17.5845 52.6454 17.0551 51.69 16.7025L50.9975 18.5788ZM52.1438 18.3428C50.6087 20.887 49.6664 23.2812 49.383 25.5147L51.367 25.7665C51.6044 23.8959 52.4122 21.7693 53.8562 19.376L52.1438 18.3428ZM50.375 24.6406H37.7656V26.6406H50.375V24.6406ZM37.7656 24.6406C33.6491 24.6406 30.5789 24.6719 28.5625 24.7349L28.625 26.7339C30.6086 26.6719 33.653 26.6406 37.7656 26.6406V24.6406ZM29.5453 25.4269C29.386 24.9338 29.384 24.4822 29.5186 24.043L27.6064 23.457C27.3451 24.3095 27.364 25.1808 27.6422 26.0418L29.5453 25.4269ZM28.6625 24.745C29.8172 24.629 30.7396 24.4887 31.3947 24.3138C31.7151 24.2283 32.0345 24.1185 32.2969 23.9634C32.5147 23.8347 32.9806 23.5029 33.0142 22.8821L31.0171 22.7741C31.0402 22.346 31.3545 22.1972 31.2792 22.2417C31.2487 22.2598 31.1338 22.3134 30.8788 22.3815C30.3828 22.5139 29.5891 22.6418 28.4625 22.755L28.6625 24.745ZM33.0149 22.8663C33.1404 19.5827 33.2031 16.294 33.2031 13H31.2031C31.2031 16.2685 31.1409 19.5319 31.0164 22.7899L33.0149 22.8663ZM33.2031 13C33.2031 9.63642 33.1509 6.72051 33.046 4.25436L31.0478 4.33939C31.1512 6.76907 31.2031 9.65525 31.2031 13H33.2031ZM33.0454 4.2429C33.0116 3.61791 32.5394 3.28652 32.3229 3.15965C32.0595 3.00534 31.7387 2.89599 31.4159 2.81061C30.7563 2.63608 29.8266 2.49589 28.6616 2.37992L28.4634 4.37008C29.6005 4.48328 30.4026 4.61131 30.9044 4.74408C31.1624 4.81234 31.2796 4.8664 31.3119 4.88527C31.3909 4.93158 31.0717 4.78313 31.0483 4.35085L33.0454 4.2429ZM29.5309 3.12557C29.4005 2.61939 29.4175 2.14411 29.5737 1.6756L27.6763 1.04315C27.395 1.88714 27.3703 2.75561 27.5941 3.62443L29.5309 3.12557ZM28.5676 2.35773C30.4068 2.46343 32.7612 2.51562 35.625 2.51562V0.515625C32.7805 0.515625 30.4682 0.463657 28.6824 0.361022L28.5676 2.35773ZM35.625 2.51562C36.0616 2.51562 36.9239 2.50505 38.2038 2.48424L38.1712 0.484507C36.8886 0.505363 36.0426 0.515625 35.625 0.515625V2.51562ZM38.2038 2.48424C39.4813 2.46347 40.5954 2.45312 41.5469 2.45312V0.453125C40.5817 0.453125 39.4562 0.463613 38.1712 0.484507L38.2038 2.48424ZM40.5982 1.76935C40.7273 2.15666 40.7454 2.5988 40.6097 3.12557L42.5465 3.62443C42.765 2.7762 42.7623 1.93709 42.4956 1.1369L40.5982 1.76935ZM41.4791 2.37992C40.3141 2.49589 39.3843 2.63608 38.7247 2.81061C38.402 2.89599 38.0811 3.00534 37.8177 3.15965C37.6012 3.28652 37.129 3.61791 37.0952 4.2429L39.0923 4.35085C39.0689 4.78313 38.7497 4.93158 38.8288 4.88527C38.861 4.8664 38.9782 4.81234 39.2362 4.74408C39.7381 4.61131 40.5401 4.48328 41.6772 4.37008L41.4791 2.37992ZM37.0949 4.24893C36.9688 6.875 36.9062 10.1788 36.9062 14.1562H38.9062C38.9062 10.1962 38.9687 6.92709 39.0926 4.34482L37.0949 4.24893ZM80.4531 24.3594L81.3723 23.9655L81.1274 23.3941L80.5066 23.3608L80.4531 24.3594ZM78.75 24.2344L78.6354 25.2278L78.6457 25.229L78.6561 25.23L78.75 24.2344ZM77.2656 23.9844L77.0391 24.9584L77.2656 23.9844ZM76.125 23.5781L75.6193 24.4408L75.6366 24.451L75.6544 24.4605L76.125 23.5781ZM75.5312 22.9219L76.4721 22.5832L76.4655 22.5648L76.4582 22.5466L75.5312 22.9219ZM66.8906 1.57812L67.8175 1.20288L67.5483 0.537711L66.8319 0.579851L66.8906 1.57812ZM66.375 1.79688L65.7444 1.02076L65.4015 1.29938L65.3766 1.74051L66.375 1.79688ZM65.1875 4.90625L64.4516 4.22919L64.0292 4.68826L64.2558 5.26946L65.1875 4.90625ZM65.5469 5.82812L66.4761 6.1977L66.6216 5.8318L66.4786 5.46492L65.5469 5.82812ZM58.9531 22.4062L59.8816 22.7776L59.8823 22.7758L58.9531 22.4062ZM55.1094 24.3594L54.9889 23.3667L54.4171 23.436L54.1902 23.9655L55.1094 24.3594ZM55.1094 25.125L54.2149 25.5722L54.5023 26.1469L55.1444 26.1244L55.1094 25.125ZM57.9688 25.0312L57.9402 24.0317L57.9398 24.0317L57.9688 25.0312ZM61.0938 25.0312L61.0691 26.0309L61.0694 26.031L61.0938 25.0312ZM64.5625 25.125L64.5339 26.1246L65.1716 26.1428L65.4569 25.5722L64.5625 25.125ZM64.5625 24.3594L65.4816 23.9655L65.2482 23.4208L64.6584 23.364L64.5625 24.3594ZM62.4531 24.0938L62.2643 25.0758L62.2734 25.0775L62.2826 25.0791L62.4531 24.0938ZM60.5781 23.3906L59.7644 23.9719L59.7747 23.9863L59.7855 24.0003L60.5781 23.3906ZM60.4844 22.5625L59.5555 22.192L59.5498 22.2063L59.5446 22.2208L60.4844 22.5625ZM62.7656 16.8438L62.7476 15.8439L62.0831 15.8559L61.8368 16.4732L62.7656 16.8438ZM65.5625 16.7969L65.548 15.797L65.5478 15.797L65.5625 16.7969ZM68.625 16.7969L68.6023 17.7966L68.6136 17.7969H68.625V16.7969ZM69.8281 16.8125L70.7585 16.4459L70.5172 15.8335L69.8594 15.813L69.8281 16.8125ZM72.0938 22.5625L73.0424 22.2463L73.034 22.2208L73.0241 22.1959L72.0938 22.5625ZM71.7344 23.6719L71.1344 22.8719L71.1274 22.8771L71.1204 22.8825L71.7344 23.6719ZM70.6875 24.125L70.8251 25.1155L70.8545 25.1114L70.8836 25.1056L70.6875 24.125ZM69 24.3594L68.8624 23.3689L68.3032 23.4465L68.0809 23.9655L69 24.3594ZM69 25.125L68.1056 25.5722L68.393 26.147L69.0353 26.1244L69 25.125ZM71.6875 25.0469L71.6648 24.0471L71.6645 24.0471L71.6875 25.0469ZM77.4062 25.0469L77.385 26.0466L77.3852 26.0467L77.4062 25.0469ZM80.4531 25.125L80.4231 26.1246L81.0618 26.1437L81.3476 25.5722L80.4531 25.125ZM63.3125 15.5L62.3801 15.1385L61.8756 16.4398L63.27 16.4991L63.3125 15.5ZM66.2812 7.84375V6.84375H65.5965L65.3489 7.48222L66.2812 7.84375ZM66.3438 7.84375L67.276 7.48185L67.0282 6.84375H66.3438V7.84375ZM69.3281 15.5312L69.3651 16.5306L70.7686 16.4786L70.2603 15.1694L69.3281 15.5312ZM66.3125 9.48438L67.2466 9.12738L66.3152 6.69029L65.3791 9.12558L66.3125 9.48438ZM64.2344 14.8906L63.301 14.5318L62.8054 15.821L64.1848 15.8894L64.2344 14.8906ZM68.3906 14.9219L68.4182 15.9215L69.8283 15.8826L69.3247 14.5649L68.3906 14.9219ZM80.9375 23.7812L81.8606 23.3966L81.6254 22.8321L81.0157 22.7843L80.9375 23.7812ZM80.9062 25.7656V26.7656H81.5814L81.8338 26.1394L80.9062 25.7656ZM68.5156 25.7656L67.5711 26.0941L67.8047 26.7656H68.5156V25.7656ZM68.5156 23.7812L68.4607 22.7828L67.8322 22.8174L67.5916 23.3989L68.5156 23.7812ZM70.9219 23.4375L71.2569 24.3797L71.2661 24.3764L71.2753 24.373L70.9219 23.4375ZM71.4062 22.5938L72.3415 22.2399L72.3389 22.2328L72.3361 22.2258L71.4062 22.5938ZM69.3594 17.4219L70.2892 17.0539L70.0491 16.4473L69.3972 16.4226L69.3594 17.4219ZM63.1719 17.4844L63.1198 16.4857L62.4747 16.5194L62.2401 17.1212L63.1719 17.4844ZM61.1562 22.6562L60.2245 22.2931L60.2186 22.3082L60.2133 22.3234L61.1562 22.6562ZM61.2969 23.1406L60.6146 23.8717L60.6396 23.8951L60.6663 23.9167L61.2969 23.1406ZM62.0938 23.4688L61.8709 24.4436L62.0938 23.4688ZM65.0312 23.7812L65.9543 23.3966L65.7072 22.8036L65.0651 22.7818L65.0312 23.7812ZM65 25.7656L64.9634 26.765L65.6651 26.7906L65.9275 26.1394L65 25.7656ZM54.6719 25.7656L53.7444 26.1394L54.0066 26.7902L54.7079 26.765L54.6719 25.7656ZM54.6406 23.7812L54.5249 22.788L53.9429 22.8558L53.7175 23.3966L54.6406 23.7812ZM58.2812 22.375L59.2068 22.7537L59.2104 22.7446L58.2812 22.375ZM64.875 5.79688L65.8042 6.16645L65.9697 5.75027L65.7694 5.34966L64.875 5.79688ZM64.625 5.23438L63.69 5.58903L63.6975 5.60883L63.7059 5.62829L64.625 5.23438ZM64.4219 4.64062L63.7103 3.93804L63.3275 4.32572L63.4457 4.85756L64.4219 4.64062ZM65.7656 1.45312L65.3266 0.554651L64.8048 0.809639L64.7677 1.38926L65.7656 1.45312ZM69 0.6875L69.9275 0.313698L69.6612 -0.347108L68.9496 -0.311231L69 0.6875ZM77.7656 22.4375L76.8381 22.8113L76.8385 22.8123L77.7656 22.4375ZM78.7031 23.4219L78.3396 24.3535L78.3495 24.3573L78.3595 24.361L78.7031 23.4219ZM80.5066 23.3608C79.9361 23.3302 79.3819 23.2895 78.8439 23.2388L78.6561 25.23C79.2223 25.2834 79.8035 25.326 80.3996 25.3579L80.5066 23.3608ZM78.8646 23.241C78.3539 23.182 77.8971 23.1046 77.4921 23.0104L77.0391 24.9584C77.5299 25.0725 78.0628 25.1617 78.6354 25.2278L78.8646 23.241ZM77.4921 23.0104C77.1054 22.9204 76.8121 22.8113 76.5956 22.6958L75.6544 24.4605C76.0629 24.6783 76.53 24.84 77.0391 24.9584L77.4921 23.0104ZM76.6307 22.7154C76.5516 22.6691 76.5107 22.6316 76.4915 22.6103C76.4821 22.5999 76.4774 22.5929 76.4753 22.5894C76.4733 22.5861 76.4725 22.5843 76.4721 22.5832L74.5904 23.2606C74.7825 23.7944 75.1701 24.1775 75.6193 24.4408L76.6307 22.7154ZM76.4582 22.5466L67.8175 1.20288L65.9637 1.95337L74.6043 23.2971L76.4582 22.5466ZM66.8319 0.579851C66.4048 0.604977 66.0388 0.781601 65.7444 1.02076L67.0056 2.57299C67.0268 2.55578 67.0317 2.556 67.0195 2.56121C67.0133 2.56382 67.0037 2.56729 66.9911 2.57031C66.9783 2.57335 66.9642 2.57552 66.9493 2.5764L66.8319 0.579851ZM65.3766 1.74051C65.3138 2.85344 64.9815 3.65317 64.4516 4.22919L65.9234 5.58331C66.831 4.59683 67.2904 3.32364 67.3734 1.85324L65.3766 1.74051ZM64.2558 5.26946L64.6152 6.19133L66.4786 5.46492L66.1192 4.54304L64.2558 5.26946ZM64.6177 5.45855L58.0239 22.0367L59.8823 22.7758L66.4761 6.1977L64.6177 5.45855ZM58.0246 22.0349C57.8331 22.5138 57.1002 23.1104 54.9889 23.3667L55.2299 25.3521C57.4102 25.0875 59.2398 24.382 59.8816 22.7776L58.0246 22.0349ZM54.1902 23.9655C54.0936 24.191 54.0156 24.4586 54.0156 24.75H56.0156C56.0156 24.7832 56.0112 24.8009 56.0114 24.7998C56.0115 24.7995 56.0125 24.7954 56.0152 24.7874C56.018 24.7794 56.0222 24.7681 56.0285 24.7533L54.1902 23.9655ZM54.0156 24.75C54.0156 25.0478 54.0913 25.3249 54.2149 25.5722L56.0038 24.6778C56.0025 24.6751 56.0057 24.681 56.0092 24.695C56.0128 24.7093 56.0156 24.7283 56.0156 24.75H54.0156ZM55.1444 26.1244C56.331 26.0828 57.2819 26.0516 57.9977 26.0308L57.9398 24.0317C57.2181 24.0526 56.2627 24.0839 55.0743 24.1256L55.1444 26.1244ZM57.9973 26.0308C58.7277 26.01 59.2142 26 59.4688 26V24C59.1817 24 58.6681 24.0109 57.9402 24.0317L57.9973 26.0308ZM59.4688 26C59.6935 26 60.2218 26.01 61.0691 26.0309L61.1184 24.0316C60.2782 24.0108 59.7232 24 59.4688 24V26ZM61.0694 26.031C61.9215 26.0517 63.0762 26.0829 64.5339 26.1246L64.5911 24.1254C63.1322 24.0837 61.9743 24.0524 61.1181 24.0315L61.0694 26.031ZM65.4569 25.5722C65.5806 25.3249 65.6562 25.0478 65.6562 24.75H63.6562C63.6562 24.7283 63.6591 24.7093 63.6627 24.695C63.6662 24.681 63.6694 24.6751 63.6681 24.6778L65.4569 25.5722ZM65.6562 24.75C65.6562 24.4586 65.5783 24.191 65.4816 23.9655L63.6434 24.7533C63.6497 24.7681 63.6539 24.7794 63.6566 24.7874C63.6594 24.7954 63.6604 24.7995 63.6604 24.7998C63.6607 24.8009 63.6562 24.7832 63.6562 24.75H65.6562ZM64.6584 23.364C63.8063 23.2819 63.1307 23.1962 62.6237 23.1084L62.2826 25.0791C62.8589 25.1788 63.5895 25.2702 64.4666 25.3548L64.6584 23.364ZM62.642 23.1117C62.1233 23.012 61.7658 22.9155 61.5422 22.8306L60.8328 24.7006C61.2133 24.8449 61.6997 24.9672 62.2643 25.0758L62.642 23.1117ZM61.5422 22.8306C61.4309 22.7884 61.3655 22.7544 61.3327 22.7343C61.3173 22.7248 61.315 22.722 61.3213 22.7273C61.3276 22.7327 61.3468 22.7498 61.3707 22.7809L59.7855 24.0003C60.0649 24.3636 60.4876 24.5697 60.8328 24.7006L61.5422 22.8306ZM61.3919 22.8094C61.3962 22.8155 61.4053 22.8305 61.4126 22.8532C61.42 22.8759 61.4219 22.8952 61.4219 22.9062H59.4219C59.4219 23.2944 59.5406 23.6586 59.7644 23.9719L61.3919 22.8094ZM61.4219 22.9062C61.4219 22.9099 61.4215 22.9125 61.4214 22.9133C61.4212 22.9139 61.4217 22.9111 61.4242 22.9042L59.5446 22.2208C59.4657 22.4378 59.4219 22.6678 59.4219 22.9062H61.4219ZM61.4132 22.933L63.6945 17.2143L61.8368 16.4732L59.5555 22.192L61.4132 22.933ZM62.7836 17.8436C63.9394 17.8228 64.8704 17.8072 65.5772 17.7968L65.5478 15.797C64.8379 15.8074 63.9044 15.8231 62.7476 15.8439L62.7836 17.8436ZM65.577 17.7968C66.2963 17.7863 66.7843 17.7812 67.0469 17.7812V15.7812C66.7678 15.7812 66.2662 15.7866 65.548 15.797L65.577 17.7968ZM67.0469 17.7812C67.6351 17.7812 68.1533 17.7864 68.6023 17.7966L68.6477 15.7971C68.18 15.7865 67.6461 15.7812 67.0469 15.7812V17.7812ZM68.625 17.7969C69.0871 17.7969 69.4772 17.802 69.7969 17.812L69.8594 15.813C69.5124 15.8021 69.1004 15.7969 68.625 15.7969V17.7969ZM68.8977 17.1791L71.1634 22.9291L73.0241 22.1959L70.7585 16.4459L68.8977 17.1791ZM71.1451 22.8787C71.1539 22.9053 71.1607 22.9274 71.1657 22.9452C71.1708 22.9631 71.1737 22.9752 71.1752 22.982C71.1767 22.989 71.1762 22.9878 71.1751 22.9797C71.1741 22.972 71.1719 22.9519 71.1719 22.9219H73.1719C73.1719 22.671 73.1021 22.4252 73.0424 22.2463L71.1451 22.8787ZM71.1719 22.9219C71.1719 22.9046 71.1743 22.8839 71.1802 22.8622C71.1861 22.8408 71.1936 22.8251 71.1987 22.8164C71.2081 22.8004 71.2001 22.8226 71.1344 22.8719L72.3344 24.4719C72.7961 24.1256 73.1719 23.6077 73.1719 22.9219H71.1719ZM71.1204 22.8825C70.9832 22.9893 70.7849 23.0857 70.4914 23.1444L70.8836 25.1056C71.4234 24.9976 71.9231 24.792 72.3483 24.4612L71.1204 22.8825ZM70.5499 23.1345L68.8624 23.3689L69.1376 25.3499L70.8251 25.1155L70.5499 23.1345ZM68.0809 23.9655C67.9842 24.191 67.9062 24.4586 67.9062 24.75H69.9062C69.9062 24.7832 69.9018 24.8009 69.9021 24.7998C69.9021 24.7995 69.9031 24.7954 69.9059 24.7874C69.9086 24.7794 69.9128 24.7681 69.9191 24.7533L68.0809 23.9655ZM67.9062 24.75C67.9062 25.0478 67.9819 25.3249 68.1056 25.5722L69.8944 24.6778C69.8931 24.6751 69.8963 24.681 69.8998 24.695C69.9034 24.7093 69.9062 24.7283 69.9062 24.75H67.9062ZM69.0353 26.1244C69.9165 26.0933 70.8082 26.0674 71.7105 26.0466L71.6645 24.0471C70.7543 24.0681 69.8543 24.0942 68.9647 24.1256L69.0353 26.1244ZM71.7102 26.0466C72.619 26.026 73.5489 26.0156 74.5 26.0156V24.0156C73.5344 24.0156 72.5893 24.0261 71.6648 24.0471L71.7102 26.0466ZM74.5 26.0156C75.4511 26.0156 76.4127 26.026 77.385 26.0466L77.4275 24.0471C76.4414 24.0261 75.4656 24.0156 74.5 24.0156V26.0156ZM77.3852 26.0467C78.3717 26.0674 79.3843 26.0934 80.4231 26.1246L80.4831 24.1254C79.4386 24.0941 78.42 24.068 77.4273 24.0471L77.3852 26.0467ZM81.3476 25.5722C81.4546 25.3582 81.5625 25.0727 81.5625 24.75H79.5625C79.5625 24.6871 79.5732 24.6487 79.5752 24.6419C79.5773 24.6345 79.5747 24.6458 79.5587 24.6778L81.3476 25.5722ZM81.5625 24.75C81.5625 24.5743 81.5329 24.4052 81.4799 24.2463L79.5826 24.8787C79.5713 24.8448 79.5625 24.8007 79.5625 24.75H81.5625ZM81.4799 24.2463C81.4488 24.1528 81.4123 24.0589 81.3723 23.9655L79.534 24.7533C79.5564 24.8057 79.572 24.8472 79.5826 24.8787L81.4799 24.2463ZM67.0469 14.5625C65.544 14.5625 64.3146 14.5417 63.355 14.5009L63.27 16.4991C64.2687 16.5416 65.529 16.5625 67.0469 16.5625V14.5625ZM64.2449 15.8615L67.2136 8.20528L65.3489 7.48222L62.3801 15.1385L64.2449 15.8615ZM66.2812 8.84375H66.3438V6.84375H66.2812V8.84375ZM65.4115 8.20565L68.3959 15.8931L70.2603 15.1694L67.276 7.48185L65.4115 8.20565ZM69.2911 14.5319C68.7465 14.5521 68.0001 14.5625 67.0469 14.5625V16.5625C68.0103 16.5625 68.7847 16.5521 69.3651 16.5306L69.2911 14.5319ZM65.3791 9.12558L63.301 14.5318L65.1678 15.2494L67.2459 9.84317L65.3791 9.12558ZM64.1848 15.8894C65.4754 15.9534 66.8869 15.9637 68.4182 15.9215L68.363 13.9223C66.8735 13.9633 65.5142 13.9529 64.2839 13.8919L64.1848 15.8894ZM69.3247 14.5649L67.2466 9.12738L65.3784 9.84137L67.4565 15.2789L69.3247 14.5649ZM80.0144 24.1659C80.1622 24.5205 80.1738 24.9079 79.9787 25.3918L81.8338 26.1394C82.2012 25.2275 82.2337 24.292 81.8606 23.3966L80.0144 24.1659ZM80.9062 24.7656H68.5156V26.7656H80.9062V24.7656ZM69.4601 25.4371C69.2766 24.9095 69.2985 24.5048 69.4396 24.1636L67.5916 23.3989C67.2328 24.266 67.2546 25.1842 67.5711 26.0941L69.4601 25.4371ZM68.5706 24.7797C69.7109 24.717 70.6404 24.5989 71.2569 24.3797L70.5869 22.4953C70.2659 22.6094 69.5912 22.7205 68.4607 22.7828L68.5706 24.7797ZM71.2753 24.373C71.6142 24.2449 72.0174 24.0172 72.2618 23.5916C72.5303 23.1239 72.4892 22.6302 72.3415 22.2399L70.471 22.9476C70.4723 22.9511 70.4566 22.9117 70.4583 22.8399C70.4601 22.7613 70.4822 22.6744 70.5273 22.5959C70.6102 22.4515 70.6983 22.453 70.5685 22.502L71.2753 24.373ZM72.3361 22.2258L70.2892 17.0539L68.4295 17.7899L70.4764 22.9617L72.3361 22.2258ZM69.3972 16.4226C67.4363 16.3484 65.3436 16.3698 63.1198 16.4857L63.2239 18.483C65.396 18.3698 67.4283 18.3495 69.3216 18.4212L69.3972 16.4226ZM62.2401 17.1212L60.2245 22.2931L62.088 23.0194L64.1036 17.8475L62.2401 17.1212ZM60.2133 22.3234C60.121 22.5849 60.0957 22.8843 60.1842 23.189C60.2698 23.4838 60.4399 23.7087 60.6146 23.8717L61.9792 22.4096C61.9976 22.4267 62.0662 22.498 62.1049 22.6313C62.1464 22.7745 62.129 22.9046 62.0992 22.9891L60.2133 22.3234ZM60.6663 23.9167C61.0096 24.1957 61.4522 24.3479 61.8709 24.4436L62.3166 22.4939C62.1731 22.4611 62.0709 22.428 62.0018 22.3995C61.9308 22.3703 61.9146 22.3541 61.9275 22.3645L60.6663 23.9167ZM61.8709 24.4436C62.284 24.538 62.7518 24.6112 63.2692 24.6663L63.4808 22.6775C63.019 22.6284 62.6327 22.5662 62.3166 22.4939L61.8709 24.4436ZM63.2692 24.6663C63.7877 24.7214 64.3644 24.7592 64.9974 24.7807L65.0651 22.7818C64.4689 22.7616 63.9415 22.7265 63.4808 22.6775L63.2692 24.6663ZM64.1082 24.1659C64.2559 24.5205 64.2675 24.9079 64.0725 25.3918L65.9275 26.1394C66.295 25.2275 66.3274 24.292 65.9543 23.3966L64.1082 24.1659ZM65.0366 24.7663C61.5953 24.6404 58.1284 24.6404 54.6359 24.7663L54.7079 26.765C58.1528 26.6408 61.5713 26.6409 64.9634 26.765L65.0366 24.7663ZM55.5994 25.3918C55.4044 24.9079 55.4159 24.5205 55.5637 24.1659L53.7175 23.3966C53.3445 24.292 53.3769 25.2275 53.7444 26.1394L55.5994 25.3918ZM54.7563 24.7745C55.8657 24.6453 56.8004 24.4531 57.5205 24.175C58.204 23.911 58.9065 23.4877 59.2068 22.7536L57.3557 21.9964C57.3748 21.9498 57.3298 22.1046 56.7998 22.3094C56.3063 22.5 55.5614 22.6672 54.5249 22.788L54.7563 24.7745ZM59.2104 22.7446L65.8042 6.16645L63.9458 5.4273L57.3521 22.0054L59.2104 22.7446ZM65.7694 5.34966C65.7435 5.29776 65.6722 5.13916 65.5441 4.84046L63.7059 5.62829C63.8278 5.91292 63.9232 6.12932 63.9806 6.24409L65.7694 5.34966ZM65.56 4.87972C65.5048 4.73408 65.4634 4.62029 65.4344 4.53569C65.402 4.44091 65.3956 4.4126 65.3981 4.42369L63.4457 4.85756C63.4852 5.03526 63.5819 5.30404 63.69 5.58903L65.56 4.87972ZM65.1335 5.34321C66.1371 4.32673 66.667 3.0266 66.7636 1.51699L64.7677 1.38926C64.6976 2.48382 64.3317 3.30869 63.7103 3.93804L65.1335 5.34321ZM66.2047 2.3516C66.9766 1.9744 67.9172 1.74336 69.0504 1.68623L68.9496 -0.311231C67.6036 -0.243363 66.388 0.0360181 65.3266 0.554651L66.2047 2.3516ZM68.0725 1.0613L76.8381 22.8113L78.6931 22.0637L69.9275 0.313698L68.0725 1.0613ZM76.8385 22.8123C77.1225 23.5147 77.6163 24.0712 78.3396 24.3535L79.0667 22.4903C78.9358 22.4392 78.8046 22.3394 78.6927 22.0627L76.8385 22.8123ZM78.3595 24.361C78.9276 24.5688 79.7947 24.6947 80.8593 24.7782L81.0157 22.7843C79.9553 22.7011 79.3328 22.5874 79.0467 22.4828L78.3595 24.361ZM89.8125 22.8594L88.8127 22.8785L88.8128 22.8857L89.8125 22.8594ZM89.8438 4.26562L90.8433 4.29756L90.8434 4.29193L89.8438 4.26562ZM95.0625 2.76562L95.1226 3.76382L95.809 3.72247L96.0161 3.06676L95.0625 2.76562ZM95.0625 2.03125L96.0403 1.82172L95.8656 1.00626L95.032 1.03172L95.0625 2.03125ZM83.2188 2.03125L83.2541 1.03188L82.5792 1.00799L82.3049 1.62511L83.2188 2.03125ZM83.2188 2.76562L82.2548 3.03155L82.4379 3.6955L83.1235 3.76108L83.2188 2.76562ZM86.8438 4.26562L85.8441 4.29264L85.8443 4.30039L85.8447 4.30814L86.8438 4.26562ZM86.8125 22.8594L85.8132 22.8212L85.8129 22.8324L86.8125 22.8594ZM83.1875 24.3594L83.0923 23.3639L82.5408 23.4167L82.2931 23.9122L83.1875 24.3594ZM83.1875 25.0938L82.2192 25.3436L82.42 26.1215L83.2228 26.0931L83.1875 25.0938ZM95.0312 25.0938L95.0007 26.0933L95.6397 26.1128L95.9257 25.541L95.0312 25.0938ZM95.0312 24.3594L95.9995 24.1095L95.8177 23.4049L95.0914 23.3612L95.0312 24.3594ZM82.7188 3.375L81.7504 3.62443L81.9246 4.30089L82.6197 4.37008L82.7188 3.375ZM82.7812 1.35938V0.359375H82.0605L81.8326 1.04315L82.7812 1.35938ZM86.5 1.4375L86.4667 2.43694L86.4669 2.43695L86.5 1.4375ZM95.7031 1.45312L96.6518 1.1369L96.4239 0.453125H95.7031V1.45312ZM95.7344 3.375L95.8334 4.37008L96.5285 4.30089L96.7028 3.62443L95.7344 3.375ZM92.25 4.29688L91.2514 4.2429L91.2512 4.24893L92.25 4.29688ZM92.2188 22.8281H93.2188V22.8014L93.2173 22.7747L92.2188 22.8281ZM92.5156 23.1719L92.1095 24.0857L92.1267 24.0933L92.1442 24.1004L92.5156 23.1719ZM92.8281 23.3125L92.3809 24.2069L92.4181 24.2255L92.4567 24.241L92.8281 23.3125ZM93.25 23.4375L93.0209 24.411L93.0331 24.4137L93.25 23.4375ZM94.2188 23.6406L94.0704 24.6296L94.0773 24.6306L94.2188 23.6406ZM94.7344 23.7188L94.57 24.7052L94.5823 24.7071L94.7344 23.7188ZM95.2656 23.7812L95.1708 24.7768L95.1751 24.7771L95.2656 23.7812ZM95.7344 23.8438L96.6913 23.5533L96.5267 23.011L95.9769 22.8736L95.7344 23.8438ZM95.6406 25.7656L95.6189 26.7654L96.3493 26.7812L96.5864 26.0903L95.6406 25.7656ZM82.75 25.7656L81.8098 26.1063L82.0551 26.7831L82.7748 26.7653L82.75 25.7656ZM82.75 23.75L82.6491 22.7551L82.0562 22.8152L81.8269 23.3654L82.75 23.75ZM86.1719 22.8281L87.1704 22.8821L87.1707 22.8761L86.1719 22.8281ZM86.2031 4.29688L87.2023 4.25436L87.2017 4.2429L86.2031 4.29688ZM90.8123 22.8402C90.729 18.4876 90.6875 15.2089 90.6875 13H88.6875C88.6875 15.2286 88.7293 18.5228 88.8127 22.8785L90.8123 22.8402ZM90.6875 13C90.6875 10.4506 90.7393 7.55004 90.8432 4.29756L88.8443 4.23369C88.7398 7.50204 88.6875 10.4244 88.6875 13H90.6875ZM90.8434 4.29193C90.8377 4.50938 90.7019 4.58511 90.7732 4.53282C90.8559 4.47215 91.0543 4.36891 91.4403 4.25796C92.202 4.03902 93.4131 3.8668 95.1226 3.76382L95.0024 1.76743C93.2536 1.87278 91.8657 2.05473 90.8878 2.33579C90.404 2.47484 89.9475 2.65806 89.5901 2.92031C89.2212 3.19094 88.8602 3.62604 88.8441 4.23932L90.8434 4.29193ZM96.0161 3.06676C96.1487 2.64687 96.1242 2.21322 96.0403 1.82172L94.0847 2.24078C94.1043 2.3321 94.1094 2.39493 94.1094 2.43359C94.1094 2.47165 94.1045 2.4786 94.1089 2.46449L96.0161 3.06676ZM95.032 1.03172C92.3065 1.11494 90.188 1.15625 88.6719 1.15625V3.15625C90.2182 3.15625 92.3602 3.11423 95.093 3.03078L95.032 1.03172ZM88.6719 1.15625C87.4084 1.15625 85.6045 1.11508 83.2541 1.03188L83.1834 3.03062C85.5413 3.11409 87.3729 3.15625 88.6719 3.15625V1.15625ZM82.3049 1.62511C82.0893 2.1104 82.1408 2.61863 82.2548 3.03155L84.1827 2.4997C84.1587 2.41238 84.1562 2.367 84.1562 2.35547C84.1562 2.34642 84.1576 2.38104 84.1326 2.43739L82.3049 1.62511ZM83.1235 3.76108C84.2908 3.87274 85.0739 4.04386 85.5395 4.23652C86.0527 4.44887 85.8506 4.53076 85.8441 4.29264L87.8434 4.23861C87.8161 3.22966 86.9994 2.67613 86.3042 2.38848C85.5615 2.08114 84.5425 1.88768 83.314 1.77017L83.1235 3.76108ZM85.8447 4.30814C85.948 6.73775 86 9.63432 86 13H88C88 9.61568 87.9478 6.68933 87.8428 4.22311L85.8447 4.30814ZM86 13C86 16.2895 85.9377 19.5632 85.8132 22.8212L87.8118 22.8976C87.9373 19.6139 88 16.3147 88 13H86ZM85.8129 22.8324C85.8193 22.5942 86.0215 22.6761 85.5083 22.8885C85.0427 23.0811 84.2596 23.2523 83.0923 23.3639L83.2827 25.3548C84.5112 25.2373 85.5302 25.0439 86.273 24.7365C86.9681 24.4489 87.7849 23.8953 87.8121 22.8864L85.8129 22.8324ZM82.2931 23.9122C82.0442 24.4099 82.1184 24.9528 82.2192 25.3436L84.1558 24.8439C84.1425 24.7922 84.1345 24.7516 84.13 24.721C84.1255 24.6902 84.125 24.6731 84.125 24.668C84.125 24.654 84.128 24.7145 84.0819 24.8066L82.2931 23.9122ZM83.2228 26.0931C84.9813 26.0311 86.7872 26 88.6406 26V24C86.7649 24 84.9354 24.0314 83.1522 24.0944L83.2228 26.0931ZM88.6406 26C90.85 26 92.97 26.0311 95.0007 26.0933L95.0618 24.0942C93.0092 24.0314 90.8687 24 88.6406 24V26ZM95.9257 25.541C96.1745 25.0432 96.1004 24.5004 95.9995 24.1095L94.063 24.6093C94.0763 24.6609 94.0842 24.7015 94.0887 24.7321C94.0933 24.763 94.0938 24.78 94.0938 24.7852C94.0938 24.7991 94.0908 24.7386 94.1368 24.6465L95.9257 25.541ZM95.0914 23.3612C93.3818 23.2582 92.1708 23.086 91.4091 22.867C91.023 22.7561 90.8246 22.6528 90.742 22.5922C90.6707 22.5399 90.8064 22.6156 90.8122 22.8331L88.8128 22.8857C88.829 23.499 89.19 23.9341 89.5588 24.2047C89.9162 24.4669 90.3728 24.6502 90.8566 24.7892C91.8344 25.0703 93.2223 25.2522 94.9711 25.3576L95.0914 23.3612ZM83.6871 3.12557C83.5568 2.61939 83.5738 2.14411 83.7299 1.6756L81.8326 1.04315C81.5512 1.88714 81.5266 2.75561 81.7504 3.62443L83.6871 3.12557ZM82.7812 2.35938C83.6818 2.35938 84.9087 2.38501 86.4667 2.43694L86.5333 0.438055C84.9663 0.38582 83.7141 0.359375 82.7812 0.359375V2.35938ZM86.4669 2.43695C88.0391 2.48901 89.1481 2.51562 89.7812 2.51562V0.515625C89.1853 0.515625 88.1068 0.490156 86.5331 0.438048L86.4669 2.43695ZM89.7812 2.51562C90.2386 2.51562 91.1111 2.50506 92.3913 2.48424L92.3587 0.484507C91.0764 0.505358 90.2198 0.515625 89.7812 0.515625V2.51562ZM92.3913 2.48424C93.6689 2.46347 94.7726 2.45312 95.7031 2.45312V0.453125C94.7587 0.453125 93.6436 0.463615 92.3587 0.484507L92.3913 2.48424ZM94.7544 1.76935C94.8835 2.15666 94.9017 2.5988 94.766 3.12557L96.7028 3.62443C96.9213 2.7762 96.9185 1.93709 96.6518 1.1369L94.7544 1.76935ZM95.6353 2.37992C94.4703 2.49589 93.5406 2.63608 92.8809 2.81061C92.5582 2.89599 92.2373 3.00534 91.974 3.15965C91.7574 3.28652 91.2852 3.61791 91.2515 4.2429L93.2485 4.35085C93.2252 4.78313 92.906 4.93158 92.985 4.88527C93.0172 4.8664 93.1345 4.81234 93.3925 4.74408C93.8943 4.61131 94.6964 4.48328 95.8334 4.37008L95.6353 2.37992ZM91.2512 4.24893C91.1251 6.875 91.0625 10.1788 91.0625 14.1562H93.0625C93.0625 10.1962 93.1249 6.92709 93.2488 4.34482L91.2512 4.24893ZM91.0625 14.1562C91.0625 17.9939 91.1145 20.9061 91.2202 22.8815L93.2173 22.7747C93.1146 20.8543 93.0625 17.9853 93.0625 14.1562H91.0625ZM91.2188 22.8281C91.2188 23.1874 91.3727 23.4686 91.5287 23.6558L93.0651 22.3754C93.1169 22.4376 93.2188 22.5939 93.2188 22.8281H91.2188ZM91.5287 23.6558C91.7011 23.8627 91.9112 23.9976 92.1095 24.0857L92.9218 22.2581C92.9325 22.2628 92.9968 22.2935 93.0651 22.3754L91.5287 23.6558ZM92.1442 24.1004C92.2217 24.1313 92.3006 24.1668 92.3809 24.2069L93.2753 22.4181C93.1473 22.3541 93.0179 22.2957 92.887 22.2434L92.1442 24.1004ZM92.4567 24.241C92.6266 24.3089 92.8212 24.3639 93.021 24.4109L93.479 22.4641C93.3246 22.4278 93.238 22.3994 93.1995 22.384L92.4567 24.241ZM93.0331 24.4137C93.2157 24.4543 93.3627 24.4887 93.4762 24.517L93.9613 22.5767C93.8248 22.5426 93.6593 22.5041 93.4669 22.4613L93.0331 24.4137ZM93.4762 24.517C93.6455 24.5593 93.8475 24.5961 94.0704 24.6296L94.3671 22.6517C94.1733 22.6226 94.042 22.5969 93.9613 22.5767L93.4762 24.517ZM94.0773 24.6306C94.2931 24.6614 94.4562 24.6862 94.57 24.7051L94.8988 22.7324C94.7625 22.7097 94.5819 22.6823 94.3602 22.6507L94.0773 24.6306ZM94.5823 24.7071C94.7445 24.7321 94.9428 24.755 95.1708 24.7767L95.3604 22.7858C95.1509 22.7658 94.995 22.7471 94.8864 22.7304L94.5823 24.7071ZM95.1751 24.7771C95.2815 24.7868 95.3629 24.7958 95.4225 24.8037C95.4887 24.8125 95.5048 24.8171 95.4918 24.8139L95.9769 22.8736C95.8083 22.8315 95.5789 22.8056 95.3562 22.7854L95.1751 24.7771ZM94.7775 24.1342C94.8816 24.4772 94.8808 24.8991 94.6948 25.4409L96.5864 26.0903C96.8796 25.2363 96.9413 24.377 96.6913 23.5533L94.7775 24.1342ZM95.6623 24.7659C91.8237 24.6826 89.4771 24.6406 88.6406 24.6406V26.6406C89.45 26.6406 91.77 26.6819 95.6189 26.7654L95.6623 24.7659ZM88.6406 24.6406C88.0623 24.6406 86.0821 24.6828 82.7252 24.7659L82.7748 26.7653C86.1471 26.6818 88.094 26.6406 88.6406 26.6406V24.6406ZM83.6902 25.425C83.5032 24.9089 83.5215 24.4983 83.6731 24.1346L81.8269 23.3654C81.4576 24.2517 81.476 25.1848 81.8098 26.1063L83.6902 25.425ZM82.8509 24.7449C83.9953 24.6289 84.9105 24.4885 85.5609 24.3132C85.8792 24.2275 86.1971 24.1173 86.4585 23.9614C86.6774 23.8308 87.1371 23.4987 87.1704 22.8821L85.1733 22.7741C85.1962 22.3502 85.5055 22.2011 85.4341 22.2437C85.4051 22.2609 85.2927 22.3142 85.0406 22.3821C84.5504 22.5141 83.7651 22.642 82.6491 22.7551L82.8509 24.7449ZM87.1707 22.8761C87.2968 20.2501 87.3594 16.9567 87.3594 13H85.3594C85.3594 16.9391 85.297 20.1979 85.173 22.7802L87.1707 22.8761ZM87.3594 13C87.3594 9.63642 87.3072 6.72051 87.2022 4.25436L85.204 4.33939C85.3074 6.76907 85.3594 9.65525 85.3594 13H87.3594ZM87.2017 4.2429C87.1679 3.61791 86.6957 3.28652 86.4792 3.15965C86.2158 3.00534 85.8949 2.89599 85.5722 2.81061C84.9125 2.63608 83.9828 2.49589 82.8178 2.37992L82.6197 4.37008C83.7568 4.48328 84.5588 4.61131 85.0606 4.74408C85.3186 4.81234 85.4359 4.8664 85.4681 4.88527C85.5471 4.93158 85.2279 4.78313 85.2046 4.35085L87.2017 4.2429ZM116.719 15.0156L115.938 15.6408L117.719 17.8638V15.0156H116.719ZM116.562 4.48438L117.562 4.45234L117.562 4.44667L116.562 4.48438ZM113.141 3.375L112.212 3.74639L112.442 4.32047L113.058 4.37158L113.141 3.375ZM113.141 1.42188L113.18 0.422653L112.424 0.392809L112.19 1.11229L113.141 1.42188ZM122.844 1.42188L123.795 1.11229L123.561 0.394626L122.807 0.42256L122.844 1.42188ZM122.844 3.375L122.94 4.37036L123.546 4.3118L123.772 3.74639L122.844 3.375ZM119.578 4.48438L120.576 4.54587L120.577 4.53472L120.577 4.52356L119.578 4.48438ZM119.578 25.7031L119.603 26.7028L120.624 26.6779L120.577 25.6572L119.578 25.7031ZM118.297 25.7344L117.523 26.3672L117.832 26.746L118.321 26.7341L118.297 25.7344ZM103.469 7.59375L104.243 6.96088L102.469 4.79027V7.59375H103.469ZM103.453 8.625L104.453 8.64627L104.453 8.64583L103.453 8.625ZM103.641 22.625L104.64 22.588L104.64 22.5868L103.641 22.625ZM107.062 23.75L107.991 23.3786L107.761 22.8045L107.145 22.7534L107.062 23.75ZM107.062 25.7656L107.024 26.7649L107.779 26.7943L108.013 26.0752L107.062 25.7656ZM97.3594 25.7656L96.4085 26.0752L96.6422 26.7929L97.3964 26.7649L97.3594 25.7656ZM97.3594 23.75L97.2632 22.7546L96.6571 22.8132L96.4309 23.3786L97.3594 23.75ZM100.625 22.625L99.6266 22.568L99.6261 22.5773L99.6257 22.5866L100.625 22.625ZM100.688 4.32812L101.687 4.29536L101.672 3.82926L101.305 3.54139L100.688 4.32812ZM97.5938 3.375L96.7196 3.86064L96.9813 4.33178L97.5188 4.37219L97.5938 3.375ZM97.6562 1.35938L97.704 0.360518L97.1228 0.332706L96.8114 0.824323L97.6562 1.35938ZM105.906 1.51562L106.687 0.890489L106.387 0.515625H105.906V1.51562ZM118.938 4.48438L117.938 4.43997L117.938 4.44301L118.938 4.48438ZM122.391 2.76562L122.482 3.7614L123.052 3.70891L123.295 3.19142L122.391 2.76562ZM122.391 2.03125L123.357 1.77359L123.152 1.00657L122.359 1.03175L122.391 2.03125ZM113.75 2.03125L113.787 1.03195L112.99 1.00203L112.784 1.77359L113.75 2.03125ZM113.75 2.76562L112.845 3.19142L113.089 3.70942L113.659 3.76148L113.75 2.76562ZM117.203 4.48438L116.203 4.50659L116.204 4.51641L117.203 4.48438ZM117.297 18.6562L116.522 19.2886L118.249 21.4041L118.297 18.6737L117.297 18.6562ZM103.828 2.15625L104.603 1.52389L104.303 1.15625H103.828V2.15625ZM98 2.03125L98.054 1.03271L97.2925 0.991546L97.0513 1.71502L98 2.03125ZM98 2.76562L97.0555 3.09415L97.2741 3.72253L97.9381 3.76371L98 2.76562ZM101.328 4.04688L102.328 4.01397L102.313 3.58213L101.989 3.29652L101.328 4.04688ZM101.266 22.625L102.265 22.6689L102.265 22.6633L101.266 22.625ZM97.8125 24.3594L97.7207 23.3636L97.1668 23.4146L96.9181 23.9122L97.8125 24.3594ZM97.8125 25.0938L96.8442 25.3436L97.0443 26.1188L97.8444 26.0932L97.8125 25.0938ZM106.453 25.0938L106.416 26.093L107.22 26.1232L107.421 25.3436L106.453 25.0938ZM106.453 24.3594L107.348 23.9122L107.099 23.4142L106.544 23.3635L106.453 24.3594ZM103 22.625L104 22.603L103.999 22.5929L103 22.625ZM102.938 5.98438V4.98438H101.96L101.938 5.96122L102.938 5.98438ZM103.094 5.98438L103.87 5.35405L103.57 4.98438H103.094V5.98438ZM118.609 25.0938L117.833 25.7241L118.175 26.145L118.714 26.0883L118.609 25.0938ZM118.906 25.0625L119.011 26.057L119.949 25.9582L119.905 25.0157L118.906 25.0625ZM117.719 15.0156V12.9688H115.719V15.0156H117.719ZM117.719 12.9688C117.719 10.5489 117.666 7.70959 117.562 4.45234L115.563 4.51641C115.667 7.75916 115.719 10.5761 115.719 12.9688H117.719ZM117.562 4.44667C117.542 3.92581 117.25 3.55235 116.959 3.32123C116.68 3.10011 116.337 2.95112 116 2.84171C115.318 2.62056 114.375 2.47396 113.223 2.37842L113.058 4.37158C114.167 4.46354 114.925 4.59558 115.383 4.74423C115.493 4.7798 115.574 4.81282 115.632 4.84079C115.661 4.85456 115.681 4.86606 115.695 4.87468C115.71 4.88335 115.716 4.88802 115.715 4.88775C115.714 4.8871 115.572 4.76689 115.563 4.52208L117.562 4.44667ZM114.069 3.00361C113.957 2.72344 113.922 2.518 113.922 2.375H111.922C111.922 2.83617 112.033 3.2974 112.212 3.74639L114.069 3.00361ZM113.922 2.375C113.922 2.39198 113.921 2.35059 113.951 2.21979C113.979 2.0995 114.024 1.9384 114.091 1.73146L112.19 1.11229C112.046 1.55385 111.922 2.01012 111.922 2.375H113.922ZM113.101 2.4211C114.698 2.48412 116.299 2.51562 117.906 2.51562V0.515625C116.326 0.515625 114.75 0.484631 113.18 0.422653L113.101 2.4211ZM117.906 2.51562C119.523 2.51562 121.182 2.48412 122.881 2.42119L122.807 0.42256C121.131 0.484627 119.497 0.515625 117.906 0.515625V2.51562ZM121.893 1.73146C121.96 1.9384 122.006 2.0995 122.033 2.21979C122.063 2.35059 122.062 2.39198 122.062 2.375H124.062C124.062 2.01012 123.938 1.55385 123.795 1.11229L121.893 1.73146ZM122.062 2.375C122.062 2.518 122.027 2.72344 121.915 3.00361L123.772 3.74639C123.952 3.2974 124.062 2.83617 124.062 2.375H122.062ZM122.748 2.37964C121.647 2.48592 120.744 2.63902 120.088 2.86174C119.764 2.97198 119.433 3.1211 119.163 3.33999C118.882 3.56827 118.599 3.93535 118.579 4.44519L120.577 4.52356C120.568 4.76777 120.428 4.88941 120.424 4.89244C120.424 4.8931 120.444 4.87689 120.499 4.84954C120.552 4.82274 120.628 4.79058 120.732 4.75545C121.165 4.60837 121.884 4.47241 122.94 4.37036L122.748 2.37964ZM118.58 4.42288C118.443 6.65215 118.375 9.8903 118.375 14.125H120.375C120.375 9.90137 120.443 6.71243 120.576 4.54587L118.58 4.42288ZM118.375 14.125C118.375 18.9031 118.443 22.7795 118.579 25.749L120.577 25.6572C120.443 22.731 120.375 18.8886 120.375 14.125H118.375ZM119.554 24.7034L118.272 24.7347L118.321 26.7341L119.603 26.7028L119.554 24.7034ZM119.071 25.1015L104.243 6.96088L102.694 8.22662L117.523 26.3672L119.071 25.1015ZM102.469 7.59375C102.469 7.76943 102.464 8.10337 102.453 8.60417L104.453 8.64583C104.463 8.14663 104.469 7.79307 104.469 7.59375H102.469ZM102.453 8.60373C102.443 9.09573 102.438 9.48421 102.438 9.76562H104.438C104.438 9.50538 104.443 9.13343 104.453 8.64627L102.453 8.60373ZM102.438 9.76562C102.438 14.8048 102.505 19.1048 102.641 22.6632L104.64 22.5868C104.505 19.0619 104.438 14.7889 104.438 9.76562H102.438ZM102.641 22.662C102.66 23.1784 102.945 23.5536 103.238 23.7899C103.517 24.015 103.861 24.1668 104.199 24.2781C104.883 24.503 105.828 24.651 106.98 24.7466L107.145 22.7534C106.037 22.6615 105.281 22.5283 104.824 22.3781C104.715 22.3422 104.634 22.3089 104.577 22.2808C104.548 22.2669 104.528 22.2554 104.514 22.2467C104.5 22.238 104.494 22.2333 104.494 22.2336C104.497 22.2354 104.631 22.3528 104.64 22.588L102.641 22.662ZM106.134 24.1214C106.246 24.4016 106.281 24.607 106.281 24.75H108.281C108.281 24.2888 108.171 23.8276 107.991 23.3786L106.134 24.1214ZM106.281 24.75C106.281 24.8129 106.252 25.0257 106.112 25.456L108.013 26.0752C108.165 25.6097 108.281 25.1454 108.281 24.75H106.281ZM107.101 24.7664C105.485 24.7034 103.883 24.6719 102.297 24.6719V26.6719C103.857 26.6719 105.432 26.7029 107.024 26.7649L107.101 24.7664ZM102.297 24.6719C100.68 24.6719 99.0216 24.7034 97.3224 24.7663L97.3964 26.7649C99.0722 26.7029 100.706 26.6719 102.297 26.6719V24.6719ZM98.3102 25.456C98.1701 25.0257 98.1406 24.8129 98.1406 24.75H96.1406C96.1406 25.1454 96.2569 25.6097 96.4085 26.0752L98.3102 25.456ZM98.1406 24.75C98.1406 24.607 98.1758 24.4016 98.2879 24.1214L96.4309 23.3786C96.2513 23.8276 96.1406 24.2888 96.1406 24.75H98.1406ZM97.4555 24.7454C98.5562 24.639 99.4612 24.4845 100.119 24.258C100.444 24.1457 100.776 23.9938 101.046 23.7709C101.329 23.5375 101.605 23.1687 101.624 22.6634L99.6257 22.5866C99.6348 22.3521 99.7671 22.2334 99.7722 22.2291C99.773 22.2284 99.753 22.2447 99.6988 22.2722C99.6457 22.2992 99.5702 22.3316 99.4673 22.367C99.0362 22.5155 98.3188 22.6526 97.2632 22.7546L97.4555 24.7454ZM101.623 22.682C101.75 20.4654 101.812 17.2342 101.812 13H99.8125C99.8125 17.2241 99.75 20.4096 99.6266 22.568L101.623 22.682ZM101.812 13C101.812 9.75228 101.771 6.85041 101.687 4.29536L99.688 4.36089C99.7709 6.88917 99.8125 9.76855 99.8125 13H101.812ZM101.305 3.54139C100.403 2.8337 99.1411 2.48852 97.6687 2.37781L97.5188 4.37219C98.8172 4.46981 99.618 4.76005 100.07 5.11486L101.305 3.54139ZM98.4679 2.88936C98.4047 2.77553 98.3594 2.62386 98.3594 2.40625H96.3594C96.3594 2.9178 96.4703 3.41197 96.7196 3.86064L98.4679 2.88936ZM98.3594 2.40625C98.3594 2.20193 98.4089 2.03996 98.5011 1.89443L96.8114 0.824323C96.5078 1.30379 96.3594 1.83974 96.3594 2.40625H98.3594ZM97.6085 2.35823C99.8074 2.46344 102.575 2.51562 105.906 2.51562V0.515625C102.592 0.515625 99.8593 0.463639 97.704 0.360518L97.6085 2.35823ZM105.126 2.14076L115.938 15.6408L117.499 14.3905L106.687 0.890489L105.126 2.14076ZM119.734 14.125C119.734 10.983 119.802 7.7833 119.937 4.52574L117.938 4.44301C117.802 7.72712 117.734 10.9545 117.734 14.125H119.734ZM119.937 4.52878C119.937 4.50952 119.939 4.49805 119.962 4.46934C119.994 4.42831 120.08 4.34534 120.278 4.2468C120.688 4.04238 121.396 3.86155 122.482 3.7614L122.299 1.76985C121.125 1.87803 120.127 2.08783 119.386 2.45633C118.622 2.83668 117.981 3.47756 117.938 4.43997L119.937 4.52878ZM123.295 3.19142C123.527 2.70005 123.464 2.1762 123.357 1.77359L121.424 2.28891C121.437 2.33606 121.444 2.37308 121.448 2.40082C121.453 2.42867 121.453 2.44425 121.453 2.44922C121.453 2.46032 121.451 2.41355 121.486 2.33983L123.295 3.19142ZM122.359 1.03175C120.39 1.09425 119.009 1.125 118.203 1.125V3.125C119.044 3.125 120.454 3.09325 122.422 3.03075L122.359 1.03175ZM118.203 1.125C116.916 1.125 115.445 1.09411 113.787 1.03195L113.713 3.03055C115.388 3.09339 116.886 3.125 118.203 3.125V1.125ZM112.784 1.77359C112.676 2.1762 112.614 2.70005 112.845 3.19142L114.655 2.33983C114.69 2.41355 114.688 2.46032 114.688 2.44922C114.688 2.44425 114.688 2.42867 114.692 2.40082C114.696 2.37308 114.704 2.33606 114.716 2.28891L112.784 1.77359ZM113.659 3.76148C114.757 3.86178 115.469 4.04291 115.879 4.2468C116.076 4.34502 116.157 4.42621 116.186 4.46261C116.203 4.48557 116.203 4.49094 116.203 4.50659L118.203 4.46216C118.181 3.48694 117.536 2.83786 116.77 2.45633C116.028 2.0873 115.024 1.8778 113.841 1.76977L113.659 3.76148ZM116.204 4.51641C116.308 7.75916 116.359 10.5761 116.359 12.9688H118.359C118.359 10.5489 118.307 7.70959 118.203 4.45234L116.204 4.51641ZM116.359 12.9688C116.359 14.3666 116.339 16.2558 116.297 18.6388L118.297 18.6737C118.338 16.2859 118.359 14.3834 118.359 12.9688H116.359ZM118.072 18.0239L104.603 1.52389L103.053 2.78861L116.522 19.2886L118.072 18.0239ZM103.828 1.15625C101.494 1.15625 99.571 1.11471 98.054 1.03271L97.946 3.02979C99.5123 3.11446 101.475 3.15625 103.828 3.15625V1.15625ZM97.0513 1.71502C96.9011 2.16575 96.8967 2.63745 97.0555 3.09415L98.9445 2.4371C98.9367 2.41464 98.9323 2.39675 98.9487 2.34748L97.0513 1.71502ZM97.9381 3.76371C99.096 3.83551 99.9838 4.19529 100.667 4.79723L101.989 3.29652C100.922 2.35679 99.5915 1.8624 98.0619 1.76754L97.9381 3.76371ZM100.329 4.07978C100.412 6.59699 100.453 9.56989 100.453 13H102.453C102.453 9.55511 102.411 6.55926 102.328 4.01397L100.329 4.07978ZM100.453 13C100.453 16.1431 100.391 19.3386 100.266 22.5867L102.265 22.6633C102.39 19.3906 102.453 16.1694 102.453 13H100.453ZM100.267 22.5811C100.266 22.6056 100.262 22.6204 100.238 22.6508C100.205 22.6932 100.119 22.7769 99.9223 22.8759C99.5128 23.0816 98.8067 23.2635 97.7207 23.3636L97.9043 25.3552C99.0788 25.2469 100.078 25.0356 100.82 24.6631C101.588 24.2776 102.222 23.6314 102.265 22.6689L100.267 22.5811ZM96.9181 23.9122C96.6692 24.4099 96.7434 24.9528 96.8442 25.3436L98.7808 24.8439C98.7675 24.7922 98.7595 24.7516 98.755 24.721C98.7505 24.6902 98.75 24.6731 98.75 24.668C98.75 24.654 98.753 24.7145 98.7069 24.8066L96.9181 23.9122ZM97.8444 26.0932C99.8024 26.0308 101.184 26 102 26V24C101.149 24 99.7393 24.0317 97.7806 24.0943L97.8444 26.0932ZM102 26C103.287 26 104.758 26.0309 106.416 26.093L106.491 24.0945C104.815 24.0316 103.317 24 102 24V26ZM107.421 25.3436C107.522 24.9528 107.596 24.4099 107.348 23.9122L105.559 24.8066C105.513 24.7145 105.516 24.654 105.516 24.668C105.516 24.6731 105.515 24.6902 105.511 24.721C105.506 24.7516 105.498 24.7922 105.485 24.8439L107.421 25.3436ZM106.544 23.3635C105.446 23.2633 104.736 23.081 104.328 22.8759C104.131 22.7772 104.05 22.6953 104.021 22.6575C104.002 22.6329 104 22.624 104 22.603L102 22.647C102.022 23.622 102.66 24.2764 103.43 24.6631C104.173 25.0361 105.179 25.2471 106.362 25.3552L106.544 23.3635ZM103.999 22.5929C103.896 19.3606 103.844 16.5489 103.844 14.1562H101.844C101.844 16.5761 101.896 19.4102 102.001 22.6571L103.999 22.5929ZM103.844 14.1562C103.844 11.4138 103.875 8.69759 103.937 6.00753L101.938 5.96122C101.875 8.667 101.844 11.3987 101.844 14.1562H103.844ZM102.938 6.98438H103.094V4.98438H102.938V6.98438ZM102.317 6.6147L117.833 25.7241L119.386 24.4634L103.87 5.35405L102.317 6.6147ZM118.714 26.0883L119.011 26.057L118.802 24.068L118.505 24.0992L118.714 26.0883ZM119.905 25.0157C119.792 22.5919 119.734 18.9651 119.734 14.125H117.734C117.734 18.9724 117.792 22.6372 117.907 25.1093L119.905 25.0157ZM128.141 22.1562L128.88 22.83L128.887 22.8219L128.141 22.1562ZM127.781 24.25L126.837 24.5785L126.846 24.6038L126.856 24.6286L127.781 24.25ZM128.156 24.8594L127.406 25.521L127.416 25.5323L127.427 25.5433L128.156 24.8594ZM128.688 25.2656L128.222 26.1505L128.231 26.1554L128.24 26.1601L128.688 25.2656ZM130 25.2656L129.553 24.3712L129.543 24.3759L129.534 24.3807L130 25.2656ZM130.547 24.8594L131.276 25.5433L131.287 25.5323L131.297 25.521L130.547 24.8594ZM130.906 24.25L129.975 23.8856L129.971 23.8969L129.966 23.9083L130.906 24.25ZM130.906 22.7656L129.966 23.1074L129.973 23.126L129.981 23.1443L130.906 22.7656ZM130 21.7344L129.534 22.6193L129.543 22.6241L129.553 22.6288L130 21.7344ZM128.594 25.8594L128.185 26.772L128.196 26.7769L128.594 25.8594ZM127.781 25.3125L127.074 26.0196L127.082 26.0275L127.09 26.0351L127.781 25.3125ZM127.219 24.5L126.301 24.8976L126.307 24.9103L126.313 24.9229L127.219 24.5ZM127.766 21.6875L127.074 20.9649L127.066 20.9725L127.059 20.9804L127.766 21.6875ZM127.402 21.4825C126.889 22.0451 126.656 22.7439 126.656 23.5H128.656C128.656 23.1727 128.747 22.9757 128.88 22.83L127.402 21.4825ZM126.656 23.5C126.656 23.8692 126.716 24.2305 126.837 24.5785L128.726 23.9215C128.68 23.7903 128.656 23.6516 128.656 23.5H126.656ZM126.856 24.6286C126.99 24.9562 127.173 25.2561 127.406 25.521L128.906 24.1978C128.827 24.1085 128.76 24.0021 128.707 23.8714L126.856 24.6286ZM127.427 25.5433C127.657 25.7894 127.923 25.9934 128.222 26.1505L129.153 24.3807C129.056 24.3295 128.968 24.2627 128.886 24.1754L127.427 25.5433ZM128.24 26.1601C128.592 26.3357 128.969 26.4219 129.359 26.4219V24.4219C129.27 24.4219 129.2 24.4039 129.135 24.3712L128.24 26.1601ZM129.359 26.4219C129.747 26.4219 130.121 26.3322 130.466 26.1505L129.534 24.3807C129.484 24.4074 129.43 24.4219 129.359 24.4219V26.4219ZM130.447 26.1601C130.759 26.004 131.038 25.798 131.276 25.5433L129.817 24.1754C129.744 24.2541 129.657 24.3189 129.553 24.3712L130.447 26.1601ZM131.297 25.521C131.538 25.247 131.721 24.9346 131.846 24.5917L129.966 23.9083C129.924 24.0238 129.868 24.1175 129.797 24.1978L131.297 25.521ZM131.837 24.6144C131.977 24.2573 132.047 23.8835 132.047 23.5H130.047C130.047 23.6373 130.023 23.7636 129.975 23.8856L131.837 24.6144ZM132.047 23.5C132.047 23.1166 131.977 22.7425 131.832 22.387L129.981 23.1443C130.023 23.2471 130.047 23.3626 130.047 23.5H132.047ZM131.846 22.4239C131.721 22.081 131.538 21.7686 131.297 21.4946L129.797 22.8179C129.868 22.8981 129.924 22.9919 129.966 23.1074L131.846 22.4239ZM131.297 21.4946C131.057 21.2226 130.772 21.0024 130.447 20.8399L129.553 22.6288C129.645 22.6747 129.725 22.7357 129.797 22.8179L131.297 21.4946ZM130.466 20.8495C130.121 20.6678 129.747 20.5781 129.359 20.5781V22.5781C129.43 22.5781 129.484 22.5926 129.534 22.6193L130.466 20.8495ZM129.359 20.5781C128.575 20.5781 127.906 20.9167 127.394 21.4906L128.887 22.8219C129.063 22.625 129.207 22.5781 129.359 22.5781V20.5781ZM129.578 21.9375C130.658 21.9375 131.287 22.1396 131.626 22.3862C131.905 22.59 132.094 22.9007 132.094 23.5H134.094C134.094 22.3909 133.696 21.4204 132.804 20.77C131.97 20.1625 130.842 19.9375 129.578 19.9375V21.9375ZM132.094 23.5C132.094 24.0993 131.905 24.41 131.626 24.6138C131.287 24.8604 130.658 25.0625 129.578 25.0625V27.0625C130.842 27.0625 131.97 26.8375 132.804 26.23C133.696 25.5796 134.094 24.6091 134.094 23.5H132.094ZM129.578 25.0625C129.37 25.0625 129.177 25.0223 128.991 24.9418L128.196 26.7769C128.635 26.9673 129.099 27.0625 129.578 27.0625V25.0625ZM129.003 24.9469C128.805 24.8582 128.63 24.7402 128.472 24.5899L127.09 26.0351C127.412 26.3431 127.778 26.5897 128.185 26.7719L129.003 24.9469ZM128.488 24.6054C128.347 24.4638 128.225 24.2908 128.125 24.0771L126.313 24.9229C126.505 25.3342 126.757 25.7029 127.074 26.0196L128.488 24.6054ZM128.136 24.1024C128.057 23.9204 128.016 23.723 128.016 23.5H126.016C126.016 23.9854 126.109 24.4546 126.301 24.8976L128.136 24.1024ZM128.016 23.5C128.016 23.277 128.057 23.0796 128.136 22.8976L126.301 22.1024C126.109 22.5454 126.016 23.0146 126.016 23.5H128.016ZM128.136 22.8976C128.224 22.6946 128.337 22.5303 128.473 22.3946L127.059 20.9804C126.736 21.303 126.484 21.6804 126.301 22.1024L128.136 22.8976ZM128.457 22.4101C128.609 22.2651 128.784 22.1478 128.991 22.0582L128.196 20.2231C127.778 20.4043 127.402 20.6516 127.074 20.9649L128.457 22.4101ZM128.991 22.0582C129.177 21.9777 129.37 21.9375 129.578 21.9375V19.9375C129.099 19.9375 128.635 20.0327 128.196 20.2231L128.991 22.0582Z" fill="white" mask="url(#path-1-outside-1_61_3)"/>
</svg>
